<?xml version="1.0" encoding="utf-8"?>
<!-- Generator: Adobe Illustrator 27.5.0, SVG Export Plug-In . SVG Version: 6.00 Build 0)  -->
<svg version="1.1" id="BASE" xmlns="http://www.w3.org/2000/svg" xmlns:xlink="http://www.w3.org/1999/xlink" x="0px" y="0px"
	 viewBox="0 0 1975 2279" style="enable-background:new 0 0 1975 2279;" xml:space="preserve">
<g>
	<path style="fill:#008AC0;" d="M1111.794,371.032C1005.513,267.141,908.225,194.529,847.05,151.919
		c71.503,248.686-116.937,512.564-253.806,703.008c-238.901,332.414-328.127,525.679-284.436,766.73
		c38.459,212.189,200.781,340.048,233.851,366.096c232.171,182.878,505.742,137.139,578.496,124.975
		c76.252-12.749,266.184-44.504,404.692-203.859c18.694-21.507,99.882-118.317,135.05-292.202
		C1775.735,1048.861,1232.109,488.642,1111.794,371.032z"/>
	<path style="fill:#0083BD;" d="M1578.228,1145.469c-56.702-181.441-160.017-344.991-275.953-495.638
		c-120.251-156.251-255.266-301.134-402.66-432.089c26.438,169.723-40.152,349.798-125.948,493.848
		c-86.13,144.61-198.657,272.317-282.549,418.238c-43.004,74.801-78.28,157.121-96.415,241.45
		c-20.733,35.594-34.186,75.684-39.232,112.01c-10.599,76.299,6.526,154.542,37.644,225.008
		c38.441,87.049,97.811,159.155,170.04,214.993c146.527,113.273,345.977,159.593,530.995,127.88
		c196.637-33.704,386.214-150.661,480.461-334.287c-10.493,6.86-21.396,13.843-32.655,20.85
		c25.673-37.979,45.552-79.019,56.914-122.517C1639.032,1461.445,1625.28,1296.036,1578.228,1145.469z"/>
	<path style="fill:#5694C3;" d="M1543.718,1138.883c-26.497-72.658-61.62-142.203-104.706-206.442
		c-27.662-41.246-56.773-81.102-87.991-119.115c-0.035-0.043-0.071-0.085-0.106-0.127c-0.004,0.005-0.008,0.01-0.012,0.014
		c86.814,160.877,126.951,338.956,57.445,495.063l-0.009,0.072c7.257,133.686-2.301,275.497-78.258,383.777
		c76.19,22.078,161.465,10.61,229.117-30.811c7.856-4.81,15.676-10.195,20.805-17.846c6.209-9.266,7.788-20.803,8.756-31.916
		C1602.949,1448.579,1601.021,1296.005,1543.718,1138.883z"/>
	<path style="fill:#5694C3;" d="M745.99,1298.19c-13.414-76.308-15.424-150.937-2.707-227.675
		c8.587-51.821,26.01-188.413,67.911-223.699c-123.564,105.205-205.308,251.064-270.669,399.605
		c65.788,23.898,134.899,27.399,198.618,49.331C741.432,1296.54,743.715,1297.352,745.99,1298.19z"/>
	<g>
		<path style="fill:#02B3D9;" d="M1555.241,1773.593c-137.27,85.43-327.769,174.683-478.583,93.182
			c-132.811-71.778-168.567-279.814-248.091-399.664c-65.205-98.267-181.575-185.837-300.414-159.033
			c-51.368,11.587-92.329,51.272-120.165,99.061c-20.733,35.594-34.187,75.684-39.232,112.01
			c-10.599,76.299,6.526,154.542,37.644,225.008c38.441,87.048,97.811,159.155,170.04,214.992
			c146.527,113.273,345.977,159.593,530.995,127.881c196.637-33.705,386.214-150.661,480.461-334.288
			C1577.404,1759.602,1566.501,1766.584,1555.241,1773.593z"/>
		<path style="fill:#02B3D9;" d="M1408.349,1308.276c69.507-156.109,29.368-334.19-57.449-495.069
			c-4.268-5.213-8.581-10.389-12.938-15.527c4.395,5.179,8.748,10.395,13.06,15.646c-85.326-158.255-215.777-299.92-331.401-387.791
			l-73.04-50.56c39.553,90.32,14.649,196.007-25.897,285.885c-40.547,89.879-96.375,173.796-121.193,269.223
			c-42.663,164.033,19.84,350.535,152.734,455.736c117.414,92.945,331.027,122.727,424.158-19.091
			c12.511-19.051,23.12-38.537,31.958-58.379"/>
	</g>
	<path style="fill:#50BBDB;" d="M1350.899,813.207c-4.268-5.213-8.581-10.389-12.938-15.527c-0.827-0.975-1.654-1.948-2.482-2.92
		c-0.395-0.461-0.789-0.923-1.184-1.384c-2.651-3.097-5.317-6.179-7.999-9.247c-0.343-0.392-0.685-0.784-1.028-1.175
		c-1.133-1.293-2.269-2.584-3.407-3.871c-0.404-0.457-0.808-0.914-1.213-1.37c-1.005-1.132-2.011-2.263-3.02-3.391
		c-0.7-0.784-1.402-1.566-2.103-2.347c-0.48-0.533-0.96-1.065-1.44-1.598c-1.556-1.726-3.117-3.446-4.683-5.163
		c-0.206-0.225-0.409-0.45-0.615-0.674c-0.925-1.013-1.853-2.024-2.783-3.034c-0.277-0.301-0.555-0.6-0.832-0.901
		c-0.816-0.884-1.632-1.768-2.45-2.649c-27.575-29.663-56.755-57.935-87.966-84.495c-0.028-0.024-0.055-0.047-0.083-0.071
		c102.68,154.073,164.952,333.923,183.922,517.846c2.404,23.365,4.745,47.458,6.701,72.007c0.014,0.191,0.03,0.383,0.044,0.574
		c0.17,2.144,0.336,4.292,0.501,6.443c0.048,0.635,0.095,1.27,0.143,1.905c0.099,1.307,0.196,2.615,0.292,3.923
		c0.135,1.846,0.268,3.693,0.396,5.544c0.006,0.079,0.012,0.157,0.017,0.236c0.616,8.76,1.176,17.565,1.66,26.411
		C1477.856,1152.167,1437.716,974.086,1350.899,813.207z"/>
	<path style="fill:#50BBDB;" d="M1257.988,1368.802c61.668-10.032,98.282-100.396,81.781-201.834s-79.87-175.539-141.538-165.507
		c-61.668,10.032-98.283,100.396-81.782,201.835C1132.952,1304.734,1196.32,1378.833,1257.988,1368.802z"/>
	<path style="fill:#50BBDB;" d="M406.606,1631.73c0.632,5.134,1.368,10.296,2.211,15.48c13.233,81.344,49.672,149.15,94.468,186.056
		c27.752,22.863,58.71,33.868,89.346,28.885c80.087-13.028,127.638-130.383,106.209-262.119
		c-21.43-131.736-103.726-227.969-183.814-214.941C438.09,1397.606,391.181,1506.399,406.606,1631.73z"/>
	<path style="fill:#50BBDB;" d="M1197.313,951.174c28.158-4.581,44.876-45.841,37.342-92.159
		c-7.535-46.317-36.469-80.151-64.627-75.571c-28.158,4.581-44.876,45.841-37.341,92.159
		C1140.22,921.92,1169.155,955.753,1197.313,951.174z"/>
</g>
</svg>
