<?xml version="1.0" encoding="utf-8"?>
<!-- Generator: Adobe Illustrator 27.5.0, SVG Export Plug-In . SVG Version: 6.00 Build 0)  -->
<svg version="1.1" xmlns="http://www.w3.org/2000/svg" xmlns:xlink="http://www.w3.org/1999/xlink" x="0px" y="0px"
	 viewBox="0 0 750 500" style="enable-background:new 0 0 750 500;" xml:space="preserve">
<g id="BACKGROUND">
	<linearGradient id="SVGID_1_" gradientUnits="userSpaceOnUse" x1="375.7005" y1="216.1995" x2="380.204" y2="-1.0956">
		<stop  offset="0.3175" style="stop-color:#BEFAEC"/>
		<stop  offset="1" style="stop-color:#A2F5D9"/>
	</linearGradient>
	<rect x="0" style="fill:url(#SVGID_1_);" width="750" height="500"/>
</g>
<g id="OBJECTS" xmlns:serif="http://www.serif.com/">
	<g>
		<defs>
			<rect id="SVGID_00000035520706007607502160000006036979400802228900_" x="0" width="750" height="500"/>
		</defs>
		<clipPath id="SVGID_00000065782920548034783870000004335404287959537062_">
			<use xlink:href="#SVGID_00000035520706007607502160000006036979400802228900_"  style="overflow:visible;"/>
		</clipPath>
		<g style="clip-path:url(#SVGID_00000065782920548034783870000004335404287959537062_);">
			<g>
				<g>
					<g>
						<path style="fill:#EBFDF9;" d="M167.709,142.393c-3.41,0-6.668,0.555-9.669,1.556c0.023-0.517,0.046-1.034,0.046-1.556
							c0-8.502-3.077-16.391-8.33-22.917c10.903-7.693,17.953-19.905,17.953-33.658c0-23.277-20.185-42.147-45.085-42.147
							c-4.943,0-9.695,0.754-14.146,2.129c0.503-2.217,0.769-4.512,0.769-6.864c0-18.651-16.625-33.77-37.133-33.77
							s-37.133,15.119-37.133,33.77c0,8.134,3.164,15.595,8.431,21.425C26.67,66.709,15.011,80.845,15.011,97.277
							c0,22.214,21.299,40.242,47.679,40.481c-0.204,1.522-0.319,3.067-0.319,4.635c0,22.452,21.427,40.653,47.858,40.653
							c12.252,0,23.424-3.916,31.89-10.348c3.464,9.364,13.609,16.146,25.591,16.146c14.838,0,26.867-10.398,26.867-23.225
							C194.576,152.792,182.547,142.393,167.709,142.393z"/>
						<path style="fill:#EBFDF9;" d="M722.764,63.98c9.492-6.872,15.533-17.193,15.533-28.737c0-20.691-19.392-37.464-43.313-37.464
							c-23.921,0-43.313,16.773-43.313,37.464c0,17.227,13.448,31.729,31.756,36.104c-14.306,8.268-24.076,22.192-25.299,38.208
							c-5.569,0.687-10.74,2.473-15.23,5.108c-0.113-26.291-26.496-47.577-59.03-47.577c-32.604,0-59.036,21.376-59.036,47.745
							c0,5.136,1.015,10.078,2.87,14.715c-3.378,1.077-6.35,2.66-8.712,4.61c-10.01-6.251-22.231-9.937-35.437-9.937
							c-33.881,0-61.347,24.184-61.347,54.016c0,0.268,0.018,0.531,0.023,0.798c-7.29-3.298-15.589-5.174-24.403-5.174
							c-25.163,0-46.175,15.221-51.246,35.519c-1.815-0.357-3.677-0.551-5.577-0.551c-5.494,0-10.68,1.561-15.273,4.317
							c-0.155-13.441-13.088-24.298-29.027-24.298c-2.976,0-5.846,0.38-8.549,1.083c-4.812-15.93-17.823-27.351-33.129-27.351
							c-19.398,0-35.122,18.338-35.122,40.959c0,22.621,15.725,40.958,35.122,40.958c9.446,0,18.014-4.357,24.326-11.431
							c4.841,3.055,10.846,4.863,17.352,4.863c4.398,0,8.564-0.831,12.299-2.31c-1.29,4.275-1.997,8.88-1.997,13.684
							c0,22.353,15.221,40.474,33.997,40.474c15.986,0,29.388-13.139,33.02-30.838c7.145,3.132,15.23,4.91,23.803,4.91
							c27.149,0,49.477-17.715,52.152-40.412c9.648,5.568,21.178,8.816,33.575,8.816c33.881,0,61.347-24.184,61.347-54.016
							c0-5.531-0.948-10.866-2.702-15.89c5.559-0.631,10.498-2.533,14.179-5.262c8.212,3.502,17.562,5.494,27.492,5.494
							c16.896,0,32.122-5.75,42.884-14.951c2.926,15.587,18.151,27.471,36.505,27.471c13.256,0,24.878-6.202,31.418-15.517
							c5.975,1.939,12.427,2.997,19.158,2.997c30.845,0,55.85-22.215,55.85-49.618C769.682,88.257,749.362,67.779,722.764,63.98z"/>
					</g>
					<path style="fill:#FFFFFF;" d="M346.277,254.074c-3.782,0-7.389,0.696-10.696,1.948c0.697-3.224,1.076-6.569,1.076-10.006
						c0-25.654-20.475-46.451-45.732-46.451c-16.33,0-30.651,8.7-38.742,21.779c-3.295-6.309-9.575-10.934-17.069-12.179
						c1.898-4.561,2.953-9.534,2.953-14.746c0-5.96-1.374-11.608-3.82-16.683c9.255-4.33,15.544-12.815,15.544-22.575
						c0-14.158-13.233-25.635-29.556-25.635c-16.282,0-29.485,11.419-29.553,25.527c-9.268,1.28-17.54,5.505-23.764,11.656
						c-9.294-7.484-21.757-12.07-35.468-12.07c-16.494,0-31.185,6.635-40.717,16.974c1.185-4.086,1.823-8.375,1.823-12.8
						c0-27.419-24.232-49.672-54.256-49.998c1.217-2.762,1.874-5.698,1.874-8.742c0-6.382-2.892-12.286-7.79-17.109
						c18.531-5.085,31.969-20.164,31.969-37.979c0-21.99-20.473-39.817-45.727-39.817s-45.727,17.826-45.727,39.817
						c0,10.489,4.665,20.025,12.278,27.136c-16.637,3.889-28.641,14.93-28.641,27.952c0,15.062,16.055,27.474,36.767,29.232
						c-6.651,8.273-10.586,18.47-10.586,29.508c0,9.55,2.942,18.472,8.041,26.062c-10.725,4.723-17.859,13.087-17.859,22.625
						c0,14.747,17.046,26.702,38.074,26.702c20.913,0,37.88-11.826,38.065-26.462c12.716-2.445,23.801-8.9,31.604-17.84
						c-0.791,3.115-1.22,6.346-1.22,9.666c0,24.813,23.294,44.927,52.029,44.927c16.82,0,31.766-6.898,41.277-17.59
						c6.756,4.591,14.999,7.298,23.905,7.298c3.756,0,7.391-0.488,10.85-1.388c0.737,11.859,11.006,21.26,23.571,21.26
						c5.367,0,10.313-1.718,14.279-4.606c1.74,24.041,21.48,43,45.593,43c9.994,0,19.233-3.266,26.757-8.791
						c1.347,13.779,13.632,24.57,28.595,24.57c15.863,0,28.723-12.127,28.723-27.086C375,266.201,362.14,254.074,346.277,254.074z"
						/>
					<path style="fill:#FFFFFF;" d="M797.044,118.545c0-12.226-5.647-23.101-14.421-30.085
						c14.083-6.732,23.289-17.827,23.289-30.384c0-20.535-24.595-37.182-54.934-37.182c-30.339,0-54.934,16.647-54.934,37.182
						c0,15.98,14.897,29.603,35.803,34.861c-6.017,6.771-9.683,15.752-9.683,25.607c0,7.014,1.865,13.581,5.105,19.229
						c-0.078,0-0.155-0.005-0.234-0.005c-34.291,0-62.089,22.412-62.089,50.058c0,8.393,2.575,16.298,7.103,23.246
						c-13.217,2.384-25.359,6.581-35.824,12.182c0.027-0.658,0.062-1.314,0.062-1.978c0-32.42-32.764-58.701-73.181-58.701
						s-73.181,26.282-73.181,58.701s32.764,58.701,73.181,58.701c12.678,0,24.601-2.588,34.998-7.138
						c-0.122,1.38-0.191,2.77-0.191,4.171c0,37.658,44.577,68.186,99.565,68.186c54.989,0,99.565-30.528,99.565-68.186
						c0-19.675-12.173-37.4-31.637-49.846c14.436-9.166,23.717-23.374,23.717-39.338c0-12.955-6.104-24.76-16.12-33.649
						C787.061,148.683,797.044,134.807,797.044,118.545z"/>
				</g>
				<g>
					<path style="fill:#EBFDF9;" d="M303.506,39.85c0,1.11-0.48,2.18-1.35,3.17h-134.33c-1.51-1.67-2.37-3.59-2.37-5.63
						c0-6.4,8.49-11.6,18.96-11.6c2.66,0,5.2,0.34,7.5,0.95c1.63-8.2,8.18-14.33,16.03-14.33c8.12,0,14.85,6.58,16.17,15.21
						c2.88-1.15,6.29-1.82,9.96-1.83c2.51-7.71,10.77-13.38,20.59-13.38c11.82,0,21.41,8.19,21.41,18.29c0,0.1-0.02,0.2-0.02,0.3
						c1.77-0.19,3.63-0.3,5.54-0.3C293.696,30.7,303.506,34.8,303.506,39.85z"/>
					<path style="fill:#EBFDF9;" d="M624.84,17.302c0,1.11-0.48,2.18-1.35,3.17H489.16c-1.51-1.67-2.37-3.59-2.37-5.63
						c0-6.4,8.49-11.6,18.96-11.6c2.66,0,5.2,0.34,7.5,0.95c1.63-8.2,8.18-14.33,16.03-14.33c8.12,0,14.85,6.58,16.17,15.21
						c2.88-1.15,6.29-1.82,9.96-1.83c2.51-7.71,10.77-13.38,20.59-13.38c11.82,0,21.41,8.19,21.41,18.29c0,0.1-0.02,0.2-0.02,0.3
						c1.77-0.19,3.63-0.3,5.54-0.3C615.03,8.152,624.84,12.252,624.84,17.302z"/>
					<path style="fill:#EBFDF9;" d="M421.746,102.066H305.844c1.686-1.693,7.695-2.939,14.845-2.939c0.984,0,1.948,0.026,2.88,0.072
						c-1.174-2.204-1.85-4.756-1.85-7.472c0-8.397,6.396-15.2,14.288-15.2c4.9,0,9.217,2.624,11.795,6.626
						c2.132-1.443,4.71-2.289,7.492-2.289c5.714,0,10.575,3.569,12.431,8.561c2.007-0.754,4.31-1.187,6.77-1.187
						c0.341,0,0.682,0.02,1.017,0.039c2.191-5.832,8.725-10.063,16.439-10.063c9.512,0,17.227,6.429,17.227,14.36
						c0,2.558-0.814,4.959-2.217,7.039c0.722-0.033,1.456-0.059,2.217-0.059C415.009,99.553,419.975,100.603,421.746,102.066z"/>
				</g>
			</g>
			<g>
				<g>
					<path style="fill:#3BBFB3;" d="M805.91,332.01l-3.67,32.94l-2.05,18.45l-832.22-17.09l10.57-125.99
						C10.2,200,58.29,158.79,111.43,134.7c27.1,25.51,104.57,85.26,115.96,94.48c8.65,7,71.81,32.91,122.07,54.93
						c19.68-18.61,45.72-49.25,51.85-54.93c5.31-4.92,37.13-41,60.65-51.32C586.69,243.22,710.98,311.49,805.91,332.01z"/>
					
						<linearGradient id="SVGID_00000103972673467211709440000001018392856519482510_" gradientUnits="userSpaceOnUse" x1="361.6382" y1="423.3215" x2="409.7662" y2="229.8475">
						<stop  offset="0.3175" style="stop-color:#2BA2A5;stop-opacity:0"/>
						<stop  offset="0.7951" style="stop-color:#2BA2A5"/>
					</linearGradient>
					<path style="fill:url(#SVGID_00000103972673467211709440000001018392856519482510_);" d="M802.24,364.95l-2.05,18.45
						l-832.22-17.09l10.57-125.99C10.2,200,58.29,158.79,111.43,134.7l-10.99,25.73l20.17,25.34l-59.67,29.86l101.57,7.96
						l42.8,51.98l121.57,30.99l22.58-22.45c19.68-18.61,45.72-49.25,51.85-54.93c5.31-4.92,37.13-41,60.65-51.32l-12.34,27.9
						l58.43,14.87L469.18,251l70.06,15.83l118.74,61.18L802.24,364.95z"/>
				</g>
				<g>
					<g>
						<g>
							<path style="fill:#385320;" d="M245.512,309.474c0,0,3.856-0.876,4.264-5.861c0.089-1.089-0.02-2.313-0.845-3.029
								c-0.908-0.787-2.294-0.577-3.486-0.424c1.393-0.031,2.311-1.43,2.902-2.691c0.48-1.025,0.919-2.091,1.031-3.217
								c0.112-1.126-0.14-2.333-0.9-3.171c-0.76-0.839-2.013-1.108-3.008-0.568c1.183-0.833,1.967-2.208,2.081-3.65
								c0.093-1.17-0.294-2.435-1.231-3.142s-2.691-0.605-3.383,0.343c0.085-1.309,0.168-2.641-0.132-3.918
								c-0.3-1.277-1.044-2.515-2.222-3.091c-1.804-0.883-4.116,0.11-5.205,1.797s-1.173,3.846-0.833,5.825
								c-0.449-0.997-2.727-1.124-3.599-0.463c-0.872,0.66-1.159,1.882-0.99,2.962c0.169,1.081,0.716,2.059,1.254,3.011
								c-1.513,0.025-2.67,0.685-3.257,2.079s-0.486,3.006,0,4.439c0.486,1.433,1.701,2.626,2.585,3.853
								c-1.561,0.026-2.75,1.15-3.056,2.682c-0.306,1.531,0.328,3.155,1.415,4.276c1.087,1.121,2.789,2.018,4.312,2.364
								c0.255,0.058,1.394,3.501,4.865,4.001c2.312,0.333,5.021-0.368,6.535-2.188C244.793,311.472,245.583,309.457,245.512,309.474
								z"/>
							<g>
								<polygon style="fill:#501F10;" points="238.635,286.372 237.192,318.511 239.578,318.69 								"/>
								<polygon style="fill:#501F10;" points="238.606,309.219 246.609,303.634 239.059,310.836 								"/>
								<polygon style="fill:#501F10;" points="238.078,306.682 230.883,302.983 237.965,308.185 								"/>
								<polygon style="fill:#501F10;" points="238.495,297.492 245.204,292.299 238.696,298.424 								"/>
								<polygon style="fill:#501F10;" points="238.615,295.893 233.231,291.402 238.181,296.476 								"/>
							</g>
						</g>
						<g>
							<path style="fill:#385320;" d="M276.114,311.562c0,0,3.38-0.768,3.738-5.137c0.078-0.954-0.017-2.028-0.741-2.655
								c-0.796-0.69-2.01-0.506-3.055-0.372c1.221-0.027,2.025-1.253,2.543-2.359c0.421-0.898,0.805-1.833,0.904-2.82
								c0.098-0.987-0.123-2.044-0.789-2.78c-0.666-0.735-1.764-0.971-2.636-0.497c1.036-0.73,1.724-1.935,1.824-3.199
								c0.081-1.025-0.257-2.134-1.079-2.754c-0.821-0.619-2.358-0.53-2.965,0.301c0.074-1.147,0.147-2.315-0.116-3.434
								c-0.263-1.119-0.915-2.204-1.948-2.709c-1.581-0.774-3.607,0.096-4.562,1.575c-0.955,1.478-1.028,3.371-0.73,5.105
								c-0.394-0.874-2.39-0.985-3.154-0.406c-0.764,0.579-1.016,1.649-0.868,2.596c0.148,0.947,0.628,1.805,1.099,2.639
								c-1.326,0.022-2.34,0.6-2.855,1.822c-0.515,1.222-0.426,2.635,0,3.89c0.426,1.256,1.491,2.301,2.266,3.377
								c-1.368,0.023-2.41,1.008-2.678,2.35c-0.268,1.342,0.287,2.765,1.241,3.747c0.953,0.982,2.444,1.769,3.779,2.072
								c0.223,0.051,1.221,3.068,4.264,3.507c2.027,0.292,4.401-0.323,5.728-1.917C275.484,313.313,276.177,311.548,276.114,311.562
								z"/>
							<g>
								<polygon style="fill:#501F10;" points="270.087,291.314 268.822,319.483 270.914,319.639 								"/>
								<polygon style="fill:#501F10;" points="270.062,311.338 277.076,306.444 270.459,312.755 								"/>
								<polygon style="fill:#501F10;" points="269.599,309.115 263.293,305.873 269.5,310.432 								"/>
								<polygon style="fill:#501F10;" points="269.965,301.06 275.844,296.509 270.141,301.878 								"/>
								<polygon style="fill:#501F10;" points="270.07,299.658 265.351,295.723 269.69,300.17 								"/>
							</g>
						</g>
						<g>
							<path style="fill:#385320;" d="M212.733,308.495c0,0,2.294-0.592,2.537-3.959c0.053-0.736-0.012-1.563-0.503-2.046
								c-0.54-0.532-1.365-0.39-2.074-0.286c0.829-0.021,1.375-0.966,1.726-1.818c0.285-0.692,0.546-1.413,0.613-2.173
								c0.067-0.761-0.083-1.576-0.535-2.142c-0.452-0.567-1.198-0.748-1.789-0.383c0.704-0.563,1.17-1.492,1.238-2.466
								c0.055-0.79-0.175-1.645-0.732-2.122c-0.557-0.477-1.601-0.409-2.012,0.232c0.05-0.884,0.1-1.784-0.079-2.647
								s-0.621-1.699-1.322-2.088c-1.073-0.596-2.448,0.074-3.096,1.214c-0.648,1.139-0.698,2.598-0.496,3.935
								c-0.267-0.674-1.622-0.759-2.141-0.313c-0.519,0.446-0.69,1.271-0.589,2.001c0.101,0.73,0.426,1.391,0.746,2.034
								c-0.9,0.017-1.588,0.463-1.938,1.404c-0.35,0.942-0.289,2.031,0,2.999c0.289,0.968,1.012,1.774,1.538,2.603
								c-0.929,0.017-1.636,0.777-1.818,1.812c-0.182,1.035,0.195,2.131,0.842,2.889c0.647,0.757,1.659,1.363,2.565,1.597
								c0.152,0.039,0.829,2.365,2.894,2.703c1.376,0.225,2.987-0.249,3.888-1.478C212.305,309.845,212.775,308.484,212.733,308.495
								z"/>
							<g>
								<polygon style="fill:#501F10;" points="208.642,292.888 207.783,314.6 209.203,314.721 								"/>
								<polygon style="fill:#501F10;" points="208.625,308.322 213.386,304.55 208.894,309.415 								"/>
								<polygon style="fill:#501F10;" points="208.311,306.608 204.03,304.109 208.244,307.624 								"/>
								<polygon style="fill:#501F10;" points="208.559,300.4 212.55,296.892 208.678,301.03 								"/>
								<polygon style="fill:#501F10;" points="208.63,299.319 205.427,296.286 208.372,299.714 								"/>
							</g>
						</g>
						<g>
							<path style="fill:#385320;" d="M349.726,318.857c0,0,1.942-0.501,2.147-3.351c0.045-0.623-0.01-1.323-0.425-1.732
								c-0.457-0.45-1.155-0.33-1.755-0.242c0.701-0.018,1.164-0.818,1.461-1.539c0.242-0.586,0.462-1.196,0.519-1.84
								c0.056-0.644-0.071-1.334-0.453-1.813c-0.383-0.48-1.014-0.633-1.514-0.324c0.596-0.476,0.99-1.263,1.048-2.087
								c0.047-0.669-0.148-1.392-0.62-1.796c-0.472-0.404-1.355-0.346-1.703,0.196c0.043-0.749,0.084-1.51-0.067-2.24
								c-0.151-0.73-0.526-1.438-1.119-1.768c-0.908-0.505-2.072,0.063-2.621,1.027c-0.549,0.965-0.591,2.199-0.419,3.331
								c-0.226-0.57-1.373-0.642-1.812-0.265c-0.439,0.378-0.584,1.076-0.499,1.694c0.085,0.618,0.361,1.177,0.632,1.722
								c-0.762,0.014-1.344,0.392-1.64,1.189c-0.296,0.797-0.245,1.719,0,2.538c0.245,0.819,0.857,1.501,1.302,2.203
								c-0.786,0.015-1.385,0.658-1.539,1.533c-0.154,0.876,0.165,1.804,0.713,2.445c0.548,0.641,1.404,1.154,2.171,1.352
								c0.128,0.033,0.702,2.002,2.45,2.288c1.164,0.19,2.528-0.211,3.291-1.251C349.364,319.999,349.762,318.847,349.726,318.857z"
								/>
							<g>
								<polygon style="fill:#501F10;" points="346.264,305.646 345.537,324.024 346.739,324.127 								"/>
								<polygon style="fill:#501F10;" points="346.249,318.711 350.279,315.517 346.477,319.635 								"/>
								<polygon style="fill:#501F10;" points="345.983,317.26 342.36,315.145 345.926,318.119 								"/>
								<polygon style="fill:#501F10;" points="346.193,312.005 349.571,309.035 346.295,312.538 								"/>
								<polygon style="fill:#501F10;" points="346.254,311.09 343.542,308.522 346.035,311.424 								"/>
							</g>
						</g>
						<g>
							<path style="fill:#385320;" d="M365.142,319.458c0,0,1.787-0.394,1.977-2.634c0.041-0.489-0.009-1.04-0.392-1.361
								c-0.421-0.354-1.063-0.259-1.616-0.191c0.646-0.014,1.071-0.643,1.345-1.21c0.222-0.461,0.426-0.94,0.478-1.446
								s-0.065-1.048-0.417-1.425c-0.352-0.377-0.933-0.498-1.394-0.255c0.548-0.374,0.911-0.992,0.965-1.64
								c0.043-0.526-0.136-1.094-0.57-1.412s-1.247-0.272-1.568,0.154c0.039-0.588,0.078-1.187-0.061-1.761
								c-0.139-0.574-0.484-1.13-1.03-1.389c-0.836-0.397-1.908,0.049-2.413,0.808c-0.505,0.758-0.544,1.728-0.386,2.618
								c-0.208-0.448-1.264-0.505-1.668-0.208c-0.404,0.297-0.537,0.846-0.459,1.331s0.332,0.925,0.581,1.353
								c-0.701,0.011-1.237,0.308-1.51,0.934c-0.273,0.626-0.225,1.351,0,1.995c0.225,0.644,0.788,1.18,1.198,1.732
								c-0.724,0.012-1.275,0.517-1.416,1.205c-0.142,0.688,0.152,1.418,0.656,1.922c0.504,0.504,1.293,0.907,1.998,1.062
								c0.118,0.026,0.646,1.573,2.255,1.798c1.072,0.15,2.327-0.165,3.029-0.983C364.808,320.356,365.175,319.451,365.142,319.458z
								"/>
							<g>
								<polygon style="fill:#501F10;" points="361.954,309.076 361.285,323.52 362.391,323.6 								"/>
								<polygon style="fill:#501F10;" points="361.941,319.344 365.65,316.834 362.151,320.07 								"/>
								<polygon style="fill:#501F10;" points="361.696,318.203 358.361,316.541 361.644,318.879 								"/>
								<polygon style="fill:#501F10;" points="361.89,314.073 364.999,311.74 361.983,314.493 								"/>
								<polygon style="fill:#501F10;" points="361.945,313.355 359.45,311.337 361.744,313.617 								"/>
							</g>
						</g>
					</g>
					<g>
						<path style="fill:#5F8518;" d="M750,338.533l-0.023,4.06l0.978,69.779L0,423.783v-125.08
							C0,298.703,358.804,328.613,750,338.533z"/>
						<path style="fill:#739120;" d="M750,338.533l-0.023,4.06c-158.382,0.75-373.636-6.74-434.878-9.94
							C240.95,328.773,51.782,308.973,0,303.463v-4.76C0,298.703,358.804,328.613,750,338.533z"/>
					</g>
					<g>
						<g>
							<path style="fill:#4C6B10;" d="M112.921,327.469c0,1.891-19.775,3.423-44.168,3.423c-24.394,0-44.169-1.533-44.169-3.423
								s19.775-3.423,44.169-3.423C93.147,324.046,112.921,325.579,112.921,327.469z"/>
							<g>
								<g>
									<path style="fill:#385320;" d="M60.79,303.783c0.17-0.05-1.36,4.91-1.76,5.47c-3.3,4.62-9.67,6.78-15.26,6.4
										c-8.41-0.57-11.75-8.6-12.38-8.69c-3.71-0.56-7.94-2.4-10.75-4.88c-2.8-2.49-4.61-6.26-4.15-9.97
										c0.45-3.72,3.1-6.62,6.83-6.96c-2.33-2.78-5.46-5.41-6.88-8.75c-1.42-3.34-1.96-7.17-0.8-10.61
										c1.16-3.44,3.81-5.23,7.43-5.56c-1.46-2.18-2.94-4.42-3.54-6.97c-0.6-2.55-0.13-5.52,1.84-7.26
										c1.97-1.74,7.45-1.84,8.7,0.46c-0.89-3.55-1.21-7.4-0.29-10.89c0.28-1.1,0.69-2.17,1.24-3.18
										c2.31-4.23,7.67-7.02,12.15-5.23c2.92,1.17,4.93,3.99,5.88,6.99c0.94,3,0.98,6.2,1.02,9.34c1.48-2.39,5.67-2.94,8.04-1.42
										c2.37,1.52,3.52,4.48,3.51,7.29c-0.02,3.47-1.65,6.9-4.33,9.1c2.28-1.47,5.33-1.05,7.3,0.82c1.98,1.87,2.8,4.71,2.73,7.42
										c-0.02,0.78-0.11,1.55-0.25,2.31c-0.32,1.9-0.96,3.76-1.64,5.56c-1.07,2.81-2.75,5.92-5.5,6.76
										c2.59-0.52,5.4-0.94,7.46,0.59c2.1,1.56,2.58,4.47,2.56,7.09C69.87,301.003,60.79,303.783,60.79,303.783z"/>
									<path style="fill:#4F682B;" d="M67.07,269.013c-0.49-1.66-1.3-3.22-2.4-4.56c-3.05-3.7-7.81-7.08-12.51-6.1
										c2.68-2.15,3.46-6.33,1.73-9.29c-1.73-2.97-5.63-4.62-8.81-3.35c1.51-3.14,0.48-7.19-2.11-9.53
										c-2.58-2.35-6.44-3.03-9.81-2.11c-1.2,0.33-2.33,0.84-3.38,1.5c0.28-1.1,0.69-2.17,1.24-3.18
										c2.31-4.23,7.67-7.02,12.15-5.23c2.92,1.17,4.93,3.99,5.88,6.99c0.94,3,0.98,6.2,1.02,9.34c1.48-2.39,5.67-2.94,8.04-1.42
										c2.37,1.52,3.52,4.48,3.51,7.29c-0.02,3.47-1.65,6.9-4.33,9.1c2.28-1.47,5.33-1.05,7.3,0.82c1.98,1.87,2.8,4.71,2.73,7.42
										C67.3,267.483,67.21,268.253,67.07,269.013z"/>
									<g>
										<polygon style="fill:#501F10;" points="40.174,249.787 42.482,326.884 48.231,326.884 										"/>
										<polygon style="fill:#501F10;" points="44.202,304.415 62.371,289.63 45.578,308.199 										"/>
										<polygon style="fill:#501F10;" points="42.482,298.443 24.584,290.889 42.482,302.057 										"/>
										<polygon style="fill:#501F10;" points="41.834,276.397 56.971,262.78 42.482,278.591 										"/>
										<polygon style="fill:#501F10;" points="41.834,272.552 28.131,262.78 40.899,274.025 										"/>
									</g>
								</g>
								<g>
									<path style="fill:#385320;" d="M120.6,291.813c-0.37,10.22-8.34,12.37-8.34,12.37c0.15-0.04-1.3,4.15-1.67,4.62
										c-2.98,3.86-8.57,5.54-13.44,5.08c-7.3-0.7-10.01-7.63-10.55-7.73c-3.21-0.56-6.86-2.24-9.24-4.43s-3.86-5.45-3.37-8.61
										c0.49-3.15,2.86-5.56,6.12-5.76c-1.97-2.43-4.62-4.75-5.78-7.64c-1.15-2.88-1.52-6.16-0.43-9.07
										c1.09-2.9,3.44-4.36,6.6-4.55c-1.22-1.89-2.46-3.84-2.91-6.04c-0.46-2.19,0.02-4.71,1.78-6.14
										c1.75-1.43,6.52-1.39,7.56,0.61c-0.72-3.2-0.89-6.65,0.15-9.72c0.25-0.78,0.59-1.54,1.02-2.26
										c2.11-3.55,6.85-5.8,10.7-4.16c2.52,1.07,4.19,3.53,4.94,6.11c0.76,2.58,0.71,5.31,0.66,8c1.36-2.01,5.01-2.38,7.04-1.02
										c2.02,1.36,2.95,3.91,2.87,6.31c-0.09,2.96-1.6,5.84-3.99,7.65c2.03-1.2,4.67-0.76,6.34,0.88c1.67,1.65,2.32,4.09,2.19,6.4
										c-0.09,1.66-0.53,3.26-1.11,4.83c-0.22,0.62-0.47,1.23-0.73,1.84c-1.01,2.39-2.57,5.05-5.04,5.64
										c2.29-0.38,4.79-0.7,6.57,0.67C120.33,287.083,120.68,289.573,120.6,291.813z"/>
									<path style="fill:#4F682B;" d="M118.85,272.713c-0.09,1.66-0.53,3.26-1.11,4.83c-0.43-0.9-0.99-1.74-1.66-2.49
										c-2.32-2.57-6.18-4.47-9.63-4.07c0.98-1.8,1.98-3.65,2.35-5.67c0.37-2.01,0.02-4.28-1.4-5.76
										c-1.42-1.48-3.83-2.04-5.31-0.61c1.39-3.5,0.84-7.69-1.4-10.71c-2.23-3.02-6.08-4.77-9.82-4.46
										c-1.31,0.11-2.6,0.46-3.79,1.03c0.25-0.78,0.59-1.54,1.02-2.26c2.11-3.55,6.85-5.8,10.7-4.16
										c2.52,1.07,4.19,3.53,4.94,6.11c0.76,2.58,0.71,5.31,0.66,8c1.36-2.01,5.01-2.38,7.04-1.02c2.02,1.36,2.95,3.91,2.87,6.31
										c-0.09,2.96-1.6,5.84-3.99,7.65c2.03-1.2,4.67-0.76,6.34,0.88C118.33,267.963,118.98,270.403,118.85,272.713z"/>
									<g>
										<polygon style="fill:#501F10;" points="96.193,259.05 95.66,327.025 100.437,327.162 										"/>
										<polygon style="fill:#501F10;" points="97.971,305.113 83.083,295.798 97.884,308.123 										"/>
										<polygon style="fill:#501F10;" points="98.154,298.74 112.921,288.952 98.078,301.367 										"/>
										<polygon style="fill:#501F10;" points="96.85,285.554 82.647,273.372 96.914,283.302 										"/>
									</g>
								</g>
							</g>
						</g>
						<g>
							<path style="fill:#4C6B10;" d="M224.625,339.747c0,2.44-29.49,4.418-65.868,4.418s-65.867-1.978-65.867-4.418
								c0-2.44,29.49-4.418,65.867-4.418S224.625,337.307,224.625,339.747z"/>
							<g>
								<g>
									<rect x="181.429" y="326.262" style="fill:#501F10;" width="30.278" height="2.752"/>
									<rect x="203.796" y="328.431" style="fill:#501F10;" width="1.508" height="9.731"/>
									<rect x="192.358" y="328.431" style="fill:#501F10;" width="1.64" height="9.731"/>
								</g>
								<g>
									<g>
										<g>
											<rect x="109.248" y="306.685" style="fill:#59370A;" width="31.595" height="33.062"/>
											<rect x="140.843" y="306.685" style="fill:#825423;" width="49.835" height="33.062"/>
										</g>
										<polygon style="fill:#FDEDBB;" points="196.897,310.355 105.349,310.355 120.61,283.953 182.746,283.953 										"/>
									</g>
									<g>
										<g>
											<g>
												<rect x="112.921" y="318.234" style="fill:#99F1DB;" width="3.465" height="15.637"/>
												<rect x="118.079" y="318.234" style="fill:#99F1DB;" width="3.464" height="15.637"/>
											</g>
											<g>
												<rect x="127.155" y="318.234" style="fill:#99F1DB;" width="3.464" height="15.637"/>
												<rect x="132.312" y="318.234" style="fill:#99F1DB;" width="3.464" height="15.637"/>
											</g>
										</g>
										<g>
											<g>
												<rect x="147.221" y="318.234" style="fill:#99F1DB;" width="3.464" height="15.637"/>
												<rect x="152.378" y="318.234" style="fill:#99F1DB;" width="3.464" height="15.637"/>
											</g>
											<g>
												<rect x="161.455" y="318.234" style="fill:#99F1DB;" width="3.464" height="15.637"/>
												<rect x="166.612" y="318.234" style="fill:#99F1DB;" width="3.464" height="15.637"/>
											</g>
										</g>
										<rect x="174.956" y="318.234" style="fill:#59370A;" width="11.838" height="21.514"/>
										<polygon style="fill:#59370A;" points="138.561,310.531 123.058,285.697 109.117,310.355 										"/>
									</g>
								</g>
							</g>
						</g>
						<g>
							<path style="fill:#385320;" d="M108.841,345.001c1.033-0.826,1.25-2.686,0.439-3.761s-2.469-1.122-3.351-0.097
								c0.783-1.909-0.059-4.95-1.466-6.294c-1.407-1.344-3.628-1.464-5.171-0.281c-1.205-1.769-4.438-1.745-6.069-0.436
								c-0.275-2.023-2.561-3.521-4.357-3.191c-1.795,0.33-3.185,2.468-2.921,4.492c-0.62-0.52-1.58-1.088-2.283-0.703
								c-0.703,0.385-1.194,1.227-1.227,2.105c-1.275-0.799-2.504-1.671-3.953-1.4c-1.449,0.272-2.827,1.346-3.353,2.899
								c-0.526,1.553-0.027,3.526,1.257,4.306c-1.37-0.159-3.108,1.419-2.647,2.881L108.841,345.001z"/>
							<path style="fill:#385320;" d="M55.741,363.613c0.884-1.394,0.654-3.392-0.522-4.55c-1.177-1.157-3.179-1.353-4.558-0.447
								c0.704-0.854-0.214-3.05-0.847-3.958c-0.632-0.908-1.896-1.318-2.941-0.954c1.181-2.25-0.006-5.837-2.293-6.946
								c-2.287-1.109-5.385,0.022-6.42,2.343c-1.53-1.642-4.456-2.019-5.663-0.127c-1.064-1.196-1.597-3.3-2.998-4.077
								c-1.4-0.777-3.189-1.042-4.593-0.272c-1.404,0.77-2.127,2.771-1.208,4.082c-1.101-0.951-2.849-0.335-4.225,0.138
								c-1.376,0.472-2.461,1.711-2.746,3.138c-1.19-1.682-3.921-2.497-5.891-1.894c-1.97,0.603-3.446,2.553-3.491,4.613
								c-0.045,2.06,1.344,4.073,3.285,4.762c-4.419-0.799-6.373,3.531-5.217,5.729L55.741,363.613z"/>
							<path style="fill:#385320;" d="M332.05,338.175c0.485-0.938,0.393-2.147-0.228-3.001c-0.621-0.854-1.742-1.314-2.785-1.142
								c0.337-1.674-0.947-3.854-2.548-4.448c-1.601-0.594-3.581,0.133-4.417,1.622c-1.398-1.117-2.692-2.873-4.465-3.109
								c-1.773-0.236-3.854,0.865-3.993,2.649c-0.512-0.669-1.294-1.337-2.038-0.942c-0.744,0.396-1.128,1.361-0.86,2.159
								c-1.536-0.728-3.844-0.393-4.903,0.937c-1.059,1.33-1.063,3.392-0.01,4.726L332.05,338.175z"/>
						</g>
					</g>
				</g>
				<g>
					<g>
						<g>
							<path style="fill:#385320;" d="M460.45,333.762c0.16-0.05-1.29,4.68-1.67,5.21c-3.14,4.41-9.2,6.47-14.53,6.11
								c-8-0.55-11.18-8.21-11.77-8.29c-3.54-0.53-7.57-2.29-10.24-4.66c-2.67-2.37-4.39-5.96-3.96-9.5
								c0.44-3.55,2.96-6.32,6.51-6.64c-2.22-2.65-5.2-5.16-6.55-8.34c-1.35-3.19-1.86-6.85-0.76-10.12c1.1-3.28,3.63-4.98,7.07-5.3
								c-1.39-2.08-2.8-4.22-3.37-6.65c-0.57-2.44-0.12-5.27,1.75-6.92c1.88-1.66,7.09-1.76,8.29,0.44
								c-0.91-3.64-1.2-7.58-0.08-11.11c0.25-0.8,0.57-1.57,0.98-2.32c2.2-4.03,7.3-6.69,11.56-4.98c2.79,1.11,4.69,3.81,5.6,6.67
								c0.9,2.86,0.94,5.91,0.97,8.91c1.41-2.28,5.39-2.82,7.65-1.36c2.26,1.45,3.35,4.27,3.34,6.95c-0.01,3.31-1.56,6.58-4.12,8.68
								c2.18-1.4,5.08-1.01,6.96,0.78c1.87,1.78,2.65,4.49,2.59,7.07c-0.01,0.59-0.07,1.17-0.16,1.75c-0.28,1.97-0.93,3.9-1.64,5.76
								c-1.01,2.67-2.61,5.63-5.21,6.44c2.45-0.49,5.13-0.88,7.07,0.57c2.01,1.49,2.46,4.26,2.45,6.76
								C469.1,331.112,460.45,333.762,460.45,333.762z"/>
							<path style="fill:#4F682B;" d="M464.08,291.322c1.87,1.78,2.65,4.49,2.59,7.07c-0.01,0.59-0.07,1.17-0.16,1.75
								c-0.24-0.3-0.5-0.58-0.78-0.85c-3.02-2.92-8.22-5.12-12.24-3.92c1.38-2.2,2.41-4.7,2.5-7.3s-0.87-5.32-2.89-6.96
								c-2.01-1.65-4.74-3.39-6.84-1.86c-0.3-3.89-0.8-8.19-3.75-10.73c-2.49-2.14-6.19-2.41-9.3-1.39
								c-0.71,0.23-1.4,0.52-2.07,0.86c0.25-0.8,0.57-1.57,0.98-2.32c2.2-4.03,7.3-6.69,11.56-4.98c2.79,1.11,4.69,3.81,5.6,6.67
								c0.9,2.86,0.94,5.91,0.97,8.91c1.41-2.28,5.39-2.82,7.65-1.36c2.26,1.45,3.35,4.27,3.34,6.95c-0.01,3.31-1.56,6.58-4.12,8.68
								C459.3,289.142,462.2,289.532,464.08,291.322z"/>
							<g>
								<polygon style="fill:#501F10;" points="440.831,282.266 443.029,355.789 448.5,355.789 								"/>
								<polygon style="fill:#501F10;" points="444.665,334.361 461.959,320.262 445.975,337.97 								"/>
								<polygon style="fill:#501F10;" points="443.029,328.667 425.993,321.462 443.029,332.113 								"/>
								<polygon style="fill:#501F10;" points="442.411,307.642 456.819,294.657 443.029,309.735 								"/>
								<polygon style="fill:#501F10;" points="442.411,303.976 429.368,294.657 441.522,305.381 								"/>
							</g>
						</g>
						<g>
							<path style="fill:#385320;" d="M515.9,325.692c0.17-0.05-1.33,4.79-1.71,5.33c-3.22,4.51-9.42,6.62-14.88,6.25
								c-8.18-0.56-11.44-8.4-12.05-8.49c-3.61-0.54-7.74-2.34-10.48-4.76c-2.73-2.43-4.49-6.11-4.05-9.73
								c0.45-3.63,3.03-6.46,6.67-6.8c-2.28-2.71-5.33-5.28-6.71-8.54c-1.39-3.26-1.91-7-0.78-10.36c1.13-3.35,3.72-5.1,7.24-5.42
								c-1.42-2.13-2.87-4.32-3.45-6.81c-0.59-2.49-0.13-5.39,1.79-7.08c1.92-1.7,7.26-1.8,8.48,0.45
								c-1.12-4.48-1.31-9.43,0.82-13.51c0.03-0.08,0.07-0.15,0.11-0.23c2.25-4.13,7.47-6.85,11.83-5.11
								c2.85,1.14,4.81,3.9,5.73,6.83c0.92,2.93,0.96,6.05,0.99,9.12c1.45-2.33,5.53-2.88,7.84-1.39c2.31,1.48,3.43,4.37,3.42,7.11
								c-0.02,3.39-1.6,6.74-4.22,8.89c2.23-1.44,5.2-1.03,7.12,0.8c1.92,1.82,2.72,4.59,2.65,7.24c-0.03,1.18-0.21,2.35-0.49,3.5
								c-0.34,1.42-0.83,2.82-1.35,4.19c-1.05,2.77-2.71,5.84-5.43,6.61c2.54-0.52,5.31-0.95,7.34,0.56
								c2.05,1.53,2.52,4.36,2.5,6.92C524.75,322.972,515.9,325.692,515.9,325.692z"/>
							<path style="fill:#4F682B;" d="M522.26,289.482c-0.03,1.18-0.21,2.35-0.49,3.5c-0.82-1.26-1.88-2.38-3.11-3.26
								c-3.04-2.17-7.42-2.96-11-1.88c0.92-2.33,1.85-4.69,2.13-7.17c0.27-2.49-0.18-5.16-1.78-7.08c-1.6-1.93-4.35-3.44-6.59-2.33
								c1.09-5.02-1.24-10.61-5.58-13.36c-2.66-1.68-5.95-2.24-9.05-1.68c0.03-0.08,0.07-0.15,0.11-0.23
								c2.25-4.13,7.47-6.85,11.83-5.11c2.85,1.14,4.81,3.9,5.73,6.83c0.92,2.93,0.96,6.05,0.99,9.12c1.45-2.33,5.53-2.88,7.84-1.39
								c2.31,1.48,3.43,4.37,3.42,7.11c-0.02,3.39-1.6,6.74-4.22,8.89c2.23-1.44,5.2-1.03,7.12,0.8
								C521.53,284.062,522.33,286.832,522.26,289.482z"/>
							<g>
								<polygon style="fill:#501F10;" points="496.48,274.603 498.064,352.351 503.413,352.351 								"/>
								<polygon style="fill:#501F10;" points="499.946,327.219 482.993,317.055 499.946,330.664 								"/>
								<polygon style="fill:#501F10;" points="499.946,319.924 516.152,308.248 499.946,322.931 								"/>
								<polygon style="fill:#501F10;" points="498.064,304.889 481.786,291.425 498.064,302.312 								"/>
							</g>
						</g>
					</g>
					<g>
						<path style="fill:#385320;" d="M730.273,340.263c0,0,6.961-1.378,7.942-10.299c0.214-1.949,0.081-4.15-1.364-5.476
							c-1.589-1.458-4.086-1.15-6.231-0.935c2.5,0.013,4.216-2.448,5.339-4.682c0.912-1.814,1.752-3.705,2.01-5.719
							c0.258-2.014-0.135-4.191-1.456-5.733c-1.321-1.542-3.555-2.087-5.366-1.169c2.163-1.435,3.638-3.862,3.915-6.443
							c0.225-2.094-0.405-4.382-2.05-5.697c-1.645-1.314-4.796-1.219-6.084,0.446c0.217-2.344,0.433-4.728-0.041-7.034
							c-0.474-2.306-1.747-4.563-3.831-5.656c-3.191-1.673-7.388-0.009-9.426,2.962c-2.038,2.971-2.297,6.84-1.786,10.406
							c-0.756-1.811-4.836-2.152-6.432-1.011c-1.596,1.141-2.173,3.317-1.924,5.264c0.249,1.947,1.182,3.729,2.099,5.464
							c-2.714-0.031-4.823,1.095-5.947,3.565c-1.124,2.471-1.022,5.367-0.222,7.961c0.8,2.594,2.92,4.795,4.445,7.04
							c-2.802-0.032-4.99,1.926-5.615,4.657c-0.625,2.732,0.43,5.675,2.325,7.74c1.894,2.064,4.901,3.76,7.615,4.456
							c0.454,0.116,2.324,6.349,8.526,7.42c4.131,0.713,9.025-0.409,11.831-3.597C728.883,343.811,730.402,340.237,730.273,340.263z
							"/>
						<g>
							<polygon style="fill:#501F10;" points="719.095,298.482 714.898,356.056 719.169,356.496 							"/>
							<polygon style="fill:#501F10;" points="717.899,339.46 732.534,329.844 718.631,342.382 							"/>
							<polygon style="fill:#501F10;" points="717.079,334.882 704.359,327.888 716.802,337.573 							"/>
							<polygon style="fill:#501F10;" points="718.288,318.42 730.58,309.441 718.602,320.103 							"/>
							<polygon style="fill:#501F10;" points="718.583,315.557 709.15,307.233 717.776,316.583 							"/>
						</g>
					</g>
					<g>
						<g>
							<path style="fill:#8DBB41;" d="M750,354.782V500H0V384.491C262.53,366.207,501.51,334.106,750,354.782z"/>
							<path style="fill:#B6CC56;" d="M750,354.782v26.613c-64.14-5.581-177.4-14.522-267.01-15.087
								C368.36,365.588,102.14,383.663,0,391.28v-6.789C262.53,366.207,501.51,334.106,750,354.782z"/>
						</g>
						<g>
							<ellipse style="fill:#6FAD3A;" cx="435.409" cy="390.964" rx="6.041" ry="1.573"/>
							<ellipse style="fill:#6FAD3A;" cx="471.294" cy="405.282" rx="6.041" ry="1.573"/>
							<ellipse style="fill:#6FAD3A;" cx="522.264" cy="387.862" rx="6.041" ry="1.573"/>
							<ellipse style="fill:#6FAD3A;" cx="658.775" cy="390.568" rx="6.041" ry="1.573"/>
							<ellipse style="fill:#6FAD3A;" cx="453.312" cy="444.636" rx="6.041" ry="1.573"/>
							<ellipse style="fill:#6FAD3A;" cx="363.796" cy="381.675" rx="6.041" ry="1.573"/>
							<ellipse style="fill:#6FAD3A;" cx="227.406" cy="425.077" rx="6.041" ry="1.573"/>
							<ellipse style="fill:#6FAD3A;" cx="201.962" cy="400.398" rx="6.041" ry="1.573"/>
							<ellipse style="fill:#6FAD3A;" cx="150.686" cy="394.084" rx="6.041" ry="1.573"/>
							<ellipse style="fill:#6FAD3A;" cx="306.594" cy="384.507" rx="6.041" ry="1.573"/>
							<ellipse style="fill:#6FAD3A;" cx="400.293" cy="419.962" rx="6.041" ry="1.573"/>
						</g>
					</g>
					<g>
						<g>
							<ellipse style="opacity:0.47;fill:#8DBB41;" cx="609.894" cy="370.126" rx="72.993" ry="8.04"/>
							<g>
								<path style="fill:#385320;" d="M704.06,255.285c-1.52,4.74-3.94,9.05-6.99,12.76c-8.45,10.3-21.73,15.92-33.97,13.05
									c2.02,7.44-0.66,16.17-6.34,20.65c-5.67,4.48-17.69,3.95-23.27-0.67c-8.76,11.9-23.65,17.7-37.12,14.47
									c-13.47-3.24-24.81-15.36-28.44-30.23c-11.32,8.72-28.95,4.22-35.78-9.12c-6.84-13.34-1.4-32.63,11.05-39.16
									c-13.77-1.53-30.68-22.23-30.03-37.7c0.65-15.47,10.93-27.58,24.77-27.66c-7.04-7.26-8.11-20.64-2.32-29.17
									c5.78-8.53,17.89-11.63,26.03-5.99c0.58-8.75,3.39-17.16,7.78-24.4c6.77-11.17,17.28-19.56,29.15-22.16
									c19.55-4.28,38.69,12.97,47.55,32.94c7.04-6,17.92-5.42,24.4,1.32c6.49,6.74,7.35,19.09,2.51,27.38
									c11.13,0.63,23.72,5.7,27.24,17.54c2.09,7.04,0.33,14.95-3.13,21.28c-3.46,6.33-5.1,11.11-10.04,16.07
									C702.17,215.345,709.82,237.365,704.06,255.285z"/>
								<path style="fill:#4F682B;" d="M704.06,255.285c-1.52,4.74-3.94,9.05-6.99,12.76c0.25-6.07-0.56-12.19-2.45-17.97
									c-4.34-13.22-12.99-26.96-25.57-32.88c3.86-6.21,7.78-12.52,9.69-19.57c1.91-7.05,1.57-15.08-2.62-21.06
									c-4.19-5.98-12.06-10.28-18.47-6.77c1.68-4.8,3.1-9.82,2.79-14.89c-0.31-5.07-2.62-10.26-6.96-12.91
									c-3.88-2.36-8.87-2.37-13.14-0.84c-4.28,1.53-7.18,3.94-10.37,7.17c-1.1-17.94-14.69-34.43-32.09-38.94
									c-9.43-2.44-19.59-1.27-28.45,2.73c6.77-11.17,17.28-19.56,29.15-22.16c19.55-4.28,38.69,12.97,47.55,32.94
									c7.04-6,17.92-5.42,24.4,1.32c6.49,6.74,7.35,19.09,2.51,27.38c11.13,0.63,23.72,5.7,27.24,17.54
									c2.09,7.04,0.33,14.95-3.13,21.28c-3.46,6.33-5.1,11.11-10.04,16.07C702.17,215.345,709.82,237.365,704.06,255.285z"/>
								<g>
									<polygon style="fill:#501F10;" points="607.245,156.611 601.1,373.251 618.687,373.251 									"/>
									<path style="fill:#501F10;" d="M609.894,281.753c1.508-2.67,48.089-33.645,48.089-33.645l-48.415,23.807L609.894,281.753z"
										/>
									<path style="fill:#501F10;" d="M609.804,238.528c1.091-2.485,33.1-35.668,33.1-35.668l-33.336,26.514L609.804,238.528z"/>
									<path style="fill:#501F10;" d="M606.543,294.857c-1.43-2.671-45.609-33.645-45.609-33.645l45.918,23.808L606.543,294.857z"
										/>
									<path style="fill:#501F10;" d="M606.629,226.285c-1.035-2.485-31.393-35.668-31.393-35.668l31.617,26.514L606.629,226.285z
										"/>
								</g>
							</g>
						</g>
					</g>
				</g>
				<g>
					<path style="fill:#608431;" d="M750,500H0v-42.352c275.338-24.399,429.386,30.898,750,24.57V500z"/>
					<g>
						<g>
							<g>
								<g>
									<g>
										<path style="fill:#FA6142;" d="M117.8,416.188c-3.122-1.373-6.085-3.064-8.828-5.042
											c-0.788-0.564-1.639-1.536-1.106-2.325c0.303-0.446,0.948-0.576,1.482-0.449c0.534,0.127,0.994,0.456,1.431,0.778
											c1.617,1.184,3.24,2.379,4.857,3.563c-3.538-2.427-6.331-5.842-7.957-9.71c-0.293-0.694-0.52-1.542-0.042-2.131
											c0.392-0.475,1.132-0.573,1.73-0.383c0.599,0.191,1.079,0.611,1.53,1.038c2.8,2.669,4.895,6.02,6.033,9.633
											c0.067-1.901-0.205-4.487,1.491-5.478c0.579-0.337,1.277,0.5,1.542,1.101c0.268,0.593,0.269,1.266,0.234,1.918
											C120.055,411.317,119.27,413.887,117.8,416.188z"/>
										<g>
											<path style="fill:none;stroke:#445C2A;stroke-miterlimit:10;" d="M117.567,415.739
												c5.275,25.473-0.171,52.826-14.865,74.667"/>
											<path style="fill:none;stroke:#445C2A;stroke-miterlimit:10;" d="M121.081,464.684c-3.112,2.045-6.507,4.935-8.848,7.767
												"/>
											<path style="fill:none;stroke:#445C2A;stroke-miterlimit:10;" d="M112.657,435.631c2.843,2.895,5.065,6.344,6.49,10.074"
												/>
										</g>
										<path style="fill:#FA6142;" d="M114.039,437.027c-4.261-0.35-8.476-1.136-12.561-2.348
											c-1.172-0.343-2.596-1.138-2.32-2.277c0.158-0.644,0.856-1.056,1.537-1.122c0.681-0.066,1.366,0.134,2.019,0.334
											c2.416,0.735,4.842,1.48,7.258,2.215c-5.214-1.417-9.989-4.29-13.599-8.164c-0.649-0.695-1.289-1.596-0.989-2.479
											c0.25-0.714,1.072-1.127,1.857-1.145c0.785-0.018,1.533,0.28,2.249,0.599c4.456,1.998,8.386,5.078,11.313,8.849
											c-0.759-2.254-2.219-5.172-0.669-7.015c0.53-0.628,1.716,0.071,2.291,0.667c0.575,0.587,0.873,1.374,1.12,2.151
											C114.532,430.415,114.745,433.741,114.039,437.027z"/>
										<path style="fill:#FA6142;" d="M120.376,465.383c0.774-4.149,2.269-8.178,4.431-11.855
											c0.391-0.668,1.007-1.427,1.799-1.307c0.624,0.092,1.017,0.741,1.02,1.345c0.003,0.604-0.282,1.171-0.574,1.712
											c-1.136,2.171-2.266,4.335-3.402,6.507c2.831-4.681,7.803-8.137,13.336-9.277c1.144-0.238,2.738-0.115,2.973,0.981
											c0.166,0.774-0.524,1.453-1.158,1.968c-4.305,3.419-9.15,6.218-14.316,8.28c2.703-1.028,5.702-1.335,8.572-0.864
											c0.757,0.12,1.522,0.312,2.113,0.774c0.591,0.462,0.941,1.273,0.643,1.943c-0.342,0.766-1.31,1.036-2.165,1.178
											C129.181,467.53,124.509,467.117,120.376,465.383z"/>
									</g>
									<g>
										<path style="fill:#445C2A;" d="M117.759,454.352c3.451-6.967,10.503-12.199,18.42-13.666
											C132.943,448.21,126.147,452.972,117.759,454.352z"/>
										
											<path style="fill:none;stroke:#667A41;stroke-width:0.75;stroke-linecap:round;stroke-linejoin:round;stroke-miterlimit:10;" d="
											M133.505,442.59c-5.531,3.542-10.956,7.166-15.816,11.514"/>
									</g>
									<g>
										<path style="fill:#445C2A;" d="M117.123,457.293c-1.087-6.664-5.367-12.79-11.391-16.303
											C107.109,447.364,111.355,453.834,117.123,457.293z"/>
										
											<path style="fill:none;stroke:#667A41;stroke-width:0.75;stroke-linecap:round;stroke-linejoin:round;stroke-miterlimit:10;" d="
											M107.058,442.772c3.577,4.605,6.881,9.405,9.891,14.367"/>
									</g>
									<g>
										<path style="fill:#445C2A;" d="M119.744,433.777c1.391-7.709,5.929-14.749,12.412-19.254
											C132.146,422.499,126.877,430.064,119.744,433.777z"/>
										
											<path style="fill:none;stroke:#667A41;stroke-width:0.75;stroke-linecap:round;stroke-linejoin:round;stroke-miterlimit:10;" d="
											M130.367,417.219c-3.284,5.599-6.76,11.094-10.421,16.474"/>
									</g>
									<g>
										<path style="fill:#445C2A;" d="M119.134,427.924c-2.413-7.29-7.945-13.587-15.039-17.12
											C106.382,417.783,112.375,424.499,119.134,427.924z"/>
										
											<path style="fill:none;stroke:#667A41;stroke-width:0.75;stroke-linecap:round;stroke-linejoin:round;stroke-miterlimit:10;" d="
											M106.765,413.776c4.106,4.706,8.212,9.412,12.318,14.118"/>
									</g>
								</g>
								<g>
									<g>
										<path style="fill:none;stroke:#445C2A;stroke-width:2;stroke-miterlimit:10;" d="M149.963,433.372
											c-9.594,25.18-26.563,47.751-48.471,64.473"/>
										<g>
											<path style="fill:#FA6142;" d="M141.097,429.732c-2.906,0.991-6.133,1.027-9.202,1.575
												c-3.063,0.542-6.198,1.769-7.627,4.354c-0.942,1.714-1.022,3.822-0.725,5.841c0.295,1.932,0.992,3.97,2.586,5.302
												c2.05,1.712,4.979,1.782,7.487,1.336c5.33-0.948,10.098-3.787,13.383-7.933c-0.171,3.105-0.335,6.242,0.248,9.365
												c0.582,3.123,1.971,6.291,4.455,8.546c2.484,2.255,6.169,3.421,9.139,2.383c3.47-1.212,5.126-5.074,4.896-8.738
												c-0.23-3.664-1.957-7.205-3.434-10.461c3.369,3.516,8.768,5.093,13.213,3.863c4.445-1.23,7.696-5.203,7.946-9.72
												c0.251-4.517-2.499-9.335-6.737-11.784c-4.237-2.449-9.723-2.402-13.958,0.027c1.605-2.116,3.223-4.256,4.257-6.71
												c1.027-2.461,1.414-5.301,0.51-7.974c-0.904-2.673-3.294-5.091-6.137-5.613c-2.257-0.415-4.469,0.364-6.311,1.461
												c-4.607,2.743-7.65,7.607-8.445,12.816c0.308-4.802-3.105-9.938-7.912-11.904c-4.807-1.966-10.577-0.576-13.374,3.212
												c-2.798,3.788-2.363,9.648,1.004,13.564C129.97,426.75,135.825,428.244,141.097,429.732z"/>
											<g>
												<path style="fill:#E54033;" d="M153.852,429.289c3.983-1.837,8.29-3.095,12.758-3.716
													c-3.567,1.249-7.128,2.505-10.695,3.755c6.545-1.289,13.32-1.849,20.14-1.665c-6.143,0.663-15.849,1.773-21.992,2.436
													c7.578-0.138,18.85,0.496,26.296,2.72c-7.727-1.258-17.805-1.545-25.525-1.548c6.373,1.521,15.048,2.709,21.42,4.23
													c-6.43-0.735-15.037-1.842-21.413-3.245c5.269,1.864,12.719,3.749,17.981,5.619c-5.199-1.452-12.35-3.199-17.549-4.651
													c4.767,3.136,11.681,6.297,16.766,8.858c-6.229-2.503-12.33-5.354-18.27-8.535
													C153.746,432.154,153.709,430.759,153.852,429.289z"/>
												<path style="fill:#E54033;" d="M154.038,434.436c3.096,3.329,5.448,7.262,6.838,11.421
													c-1.56-3.901-3.964-7.554-7-10.641c3.85,5.791,6.501,12.258,7.707,18.838c-2.313-6.313-5.145-12.496-8.476-18.455
													c2.77,7.258,5.555,14.554,7.127,22.036c-2.697-7.222-5.401-14.438-8.098-21.66c1.422,6.795,3.21,13.563,5.362,20.241
													c-2.279-6.022-4.154-12.156-5.619-18.346c0.683,6.352,1.897,12.694,3.618,18.944c-2.38-6.161-4.412-13.697-4.88-20.091
													c-0.752,4.861-0.855,11.175,0.19,16.152c-1.999-5.866-2.378-12.098-1.101-17.853
													C151.037,434.857,152.375,434.699,154.038,434.436z"/>
												<path style="fill:#E54033;" d="M145.03,430.889c-4.98,0.588-9.856,1.608-14.557,3.06
													c4.661-1.003,9.421-1.724,14.228-2.166c-5.653,1.359-11.1,3.302-16.224,5.787c5.062-2.388,10.564-3.995,16.278-4.768
													c-5.67,2.65-11.353,5.299-17.023,7.949c5.419-2.008,10.838-4.015,16.257-6.023c-4.594,3.685-9.668,6.831-15.093,9.359
													c6.038-2.601,11.739-5.807,16.999-9.562c-3.049,4.637-7.786,7.912-12.434,11.079c4.188-1.78,7.982-4.306,11.145-7.413
													c-1.207,2.33-2.852,4.418-4.848,6.145c2.674-2.066,4.983-4.556,6.806-7.361c0.339-0.517,0.659-1.055,0.76-1.675
													C147.601,433.682,146.347,432.102,145.03,430.889z"/>
												<path style="fill:#E54033;" d="M145.409,429.64c-4.056-1.315-7.987-3.093-11.693-5.27
													c2.952,1.658,7.69,3.506,10.946,4.293c-5.516-2.745-12.029-7.279-15.915-11.982c3.958,3.993,11.279,8.61,16.2,11.386
													c-4.73-4.444-11.41-11.001-15.378-16.066c4.163,4.062,11.379,11.068,15.529,15.129
													c-3.07-4.305-9.199-11.561-12.262-15.871c3.819,4.159,9.922,11.168,13.046,15.809
													c-2.266-4.604-5.995-11.241-7.966-16.528c2.755,4.774,6.178,10.97,8.229,15.605c-1.312-4.9-3.263-9.973-4.582-14.893
													c1.856,4.697,3.712,9.394,5.568,14.091c0.218,0.56,0.443,1.139,0.374,1.705
													C147.34,428.436,145.521,429.177,145.409,429.64z"/>
												<path style="fill:#E54033;" d="M152.861,428.241c3.922-1.922,7.528-4.38,10.684-7.286
													c-2.83,2.093-5.891,3.921-9.116,5.449c3.602-3.084,6.8-6.609,9.491-10.466c-2.821,3.398-7.968,7.963-11.319,10.881
													c3.079-4.755,7.941-11.131,11.02-15.886c-3.354,3.784-9.193,11.056-12.039,15.224
													c1.959-5.235,6.739-13.892,10.658-17.872c-4.41,3.465-9.845,12.143-11.937,17.306
													c1.054-3.851,4.812-11.584,7.154-14.774c-3.016,3.229-6.93,10.256-8.282,14.482c0.587-3.693,3.074-10.467,4.19-14
													c-2.374,4.932-4.203,10.137-5.464,15.517C149.209,427.34,150.513,427.844,152.861,428.241z"/>
											</g>
											<g style="enable-background:new    ;">
												<path style="fill:#FFE473;" d="M151.09,436.74c-1.81,0.31-3.759-0.476-5.183-1.877
													c-1.518-1.494-2.193-3.715-1.705-5.602c0.808-3.123,4.902-4.68,8.099-3.022c4.05,2.101,3.577,8.07,0.269,9.969
													C152.099,436.479,151.6,436.653,151.09,436.74z"/>
											</g>
										</g>
									</g>
									<g>
										<path style="fill:#445C2A;" d="M126.188,474.855c4.436-5.562,10.981-9.552,18.129-11.052
											c7.147-1.499,14.839-0.496,21.304,2.779C153.564,473.424,140.081,476.67,126.188,474.855z"/>
										
											<path style="fill:none;stroke:#667A41;stroke-width:0.75;stroke-linecap:round;stroke-linejoin:round;stroke-miterlimit:10;" d="
											M160.959,467.072c-11.458,0.145-22.881,2.473-33.404,6.807"/>
									</g>
								</g>
							</g>
							<g>
								<g>
									<g>
										<path style="fill:#3F5A26;" d="M85.731,433.177c-7.364,5.872-24.802,7.151-24.802,7.151s4.093-15.95,11.457-21.822
											c7.364-5.872,19.62-8.036,21.695-4.614C95.736,416.62,93.095,427.305,85.731,433.177z"/>
										<g>
											
												<path style="fill:none;stroke:#667A41;stroke-width:0.75;stroke-linecap:round;stroke-linejoin:round;stroke-miterlimit:10;" d="
												M92.556,414.489c-10.048,9.035-20.489,17.632-31.284,25.76"/>
											
												<path style="fill:none;stroke:#667A41;stroke-width:0.75;stroke-linecap:round;stroke-linejoin:round;stroke-miterlimit:10;" d="
												M86.558,413.507c0.329,1.823,0.657,3.645,0.986,5.468c1.614,0.467,3.222,0.875,4.836,1.342"/>
											
												<path style="fill:none;stroke:#667A41;stroke-width:0.75;stroke-linecap:round;stroke-linejoin:round;stroke-miterlimit:10;" d="
												M79.895,416.756c0.731,2.359,1.35,4.753,1.851,7.172c2.515,0.84,5.141,1.477,7.726,2.062"/>
											
												<path style="fill:none;stroke:#667A41;stroke-width:0.75;stroke-linecap:round;stroke-linejoin:round;stroke-miterlimit:10;" d="
												M84.807,432.469c-2.948-1.19-6.103-2.384-9.051-3.574c-0.927-2.758-1.981-5.473-3.157-8.134"/>
											
												<path style="fill:none;stroke:#667A41;stroke-width:0.75;stroke-linecap:round;stroke-linejoin:round;stroke-miterlimit:10;" d="
												M68.252,427.195c0.654,2.089,1.308,4.178,1.962,6.267c2.188,0.757,4.404,1.625,6.488,2.635"/>
											
												<path style="fill:none;stroke:#667A41;stroke-width:0.75;stroke-linecap:round;stroke-linejoin:round;stroke-miterlimit:10;" d="
												M64.493,432.263c0.613,1.438,1.02,2.962,1.204,4.514c1.494,0.463,3.197,1.115,4.56,1.883"/>
										</g>
									</g>
									<g>
										<path style="fill:#3F5A26;" d="M66.383,399.152c3.015,8.923-1.72,25.755-1.72,25.755s-13.604-9.278-16.619-18.202
											c-3.015-8.923-0.876-21.183,3.047-21.97C54.22,384.109,63.368,390.229,66.383,399.152z"/>
										<g>
											
												<path style="fill:none;stroke:#667A41;stroke-width:0.75;stroke-linecap:round;stroke-linejoin:round;stroke-miterlimit:10;" d="
												M51.134,386.373c5.075,12.523,9.604,25.268,13.571,38.185"/>
											
												<path style="fill:none;stroke:#667A41;stroke-width:0.75;stroke-linecap:round;stroke-linejoin:round;stroke-miterlimit:10;" d="
												M48.169,391.678c1.826,0.311,3.651,0.623,5.477,0.935c0.989-1.358,1.92-2.732,2.909-4.09"/>
											
												<path style="fill:none;stroke:#667A41;stroke-width:0.75;stroke-linecap:round;stroke-linejoin:round;stroke-miterlimit:10;" d="
												M48.955,399.05c2.467,0.115,4.929,0.349,7.374,0.701c1.646-2.079,3.139-4.331,4.569-6.563"/>
											
												<path style="fill:none;stroke:#667A41;stroke-width:0.75;stroke-linecap:round;stroke-linejoin:round;stroke-miterlimit:10;" d="
												M65.403,399.781c-2.123,2.367-4.319,4.927-6.442,7.294c-2.909-0.067-5.82,0-8.723,0.199"/>
											
												<path style="fill:none;stroke:#667A41;stroke-width:0.75;stroke-linecap:round;stroke-linejoin:round;stroke-miterlimit:10;" d="
												M54.808,413.551c2.187,0.096,4.373,0.192,6.56,0.289c1.457-1.8,3.027-3.588,4.687-5.203"/>
											
												<path style="fill:none;stroke:#667A41;stroke-width:0.75;stroke-linecap:round;stroke-linejoin:round;stroke-miterlimit:10;" d="
												M58.293,418.81c1.56-0.087,3.133,0.05,4.654,0.405c0.944-1.248,2.137-2.626,3.323-3.646"/>
										</g>
									</g>
									<g>
										<g>
											<g>
												<path style="fill:#FCA51A;" d="M82.492,385.366c0.423,8.909-3.07,10.752-7.571,8.991
													c-4.501-1.761-8.305-6.46-8.728-15.37c-0.334-7.037,4.349-13.498,6.332-15.902c0.413-0.501,1.196-0.434,1.518,0.129
													C76.071,366.763,82.14,377.952,82.492,385.366z"/>
												<path style="fill:#FCA51A;" d="M75.246,381.876c-5.773,6.799-4.131,10.391,0.51,11.743
													c4.64,1.352,10.522-0.048,16.295-6.847c4.805-5.66,4.806-14.213,4.671-16.921c-0.021-0.423-0.447-0.701-0.838-0.54
													C92.654,370.637,80.247,375.987,75.246,381.876z"/>
												<path style="fill:#FFD63E;" d="M78.688,387.646c2.208,8.642-0.843,11.15-5.606,10.331
													c-4.763-0.819-9.436-4.656-11.644-13.298c-1.744-6.826,1.543-14.097,3.002-16.851c0.304-0.574,1.084-0.666,1.513-0.179
													C68.654,370.717,76.851,380.456,78.688,387.646z"/>
												<path style="fill:#FFD63E;" d="M77.815,387.083c-7.163,5.314-6.377,9.185-2.164,11.553
													c4.214,2.368,10.259,2.337,17.422-2.978c5.963-4.424,7.9-12.754,8.383-15.422c0.075-0.417-0.276-0.784-0.694-0.716
													C97.316,380.08,84.02,382.48,77.815,387.083z"/>
												<path style="fill:#FFD63E;" d="M87.121,385.147c-3.175,10.148-7.803,12.791-12.074,11.454
													c-4.271-1.336-6.568-6.145-3.393-16.293c2.568-8.21,10.727-16.526,13.749-19.402c0.504-0.48,1.336-0.22,1.477,0.462
													C87.724,365.454,89.69,376.937,87.121,385.147z"/>
												<g>
													<path style="fill:#FBB41C;" d="M80.132,389.942c-1.28,4.065-5.217,8.165-5.217,8.165s-0.878-5.616,0.402-9.681
														c1.28-4.065,2.904-5.459,4.233-5.041C80.88,383.804,81.412,385.877,80.132,389.942z"/>
													<path style="fill:#FBB41C;" d="M85.108,396.058c-3.735,2.053-9.414,2.294-9.414,2.294s3.247-4.665,6.982-6.718
														c3.735-2.053,5.872-1.938,6.543-0.716C89.891,392.139,88.843,394.005,85.108,396.058z"/>
													<path style="fill:#FBB41C;" d="M72.054,388.293c1.799,3.864,1.66,9.546,1.66,9.546s-4.438-3.552-6.236-7.415
														c-1.799-3.864-1.542-5.988-0.278-6.577C68.464,383.259,70.256,384.43,72.054,388.293z"/>
												</g>
											</g>
											<path style="fill:#3F5A26;" d="M65.543,394.1c2.318,3.026,8.301,7.408,8.301,7.408s8.69-0.323,12.233-1.727
												c-0.237-0.833-1.262-1.361-2.128-1.396c-0.865-0.035-1.706,0.251-2.555,0.42c-0.849,0.169-1.793,0.204-2.515-0.274
												c-0.795-0.526-1.109-1.515-1.464-2.4c-0.354-0.885-0.929-1.833-1.869-1.994c-1.375-0.236-2.428,1.334-3.809,1.525
												c-1.085,0.151-2.072-0.569-2.977-1.185C67.855,393.861,66.533,393.632,65.543,394.1z"/>
										</g>
										<path style="fill:none;stroke:#445C2A;stroke-width:2;stroke-miterlimit:10;" d="M74.474,399.006
											c-12.565,29.349-19.475,61.107-20.242,93.024"/>
									</g>
								</g>
								<g>
									<g>
										<path style="fill:#3F5A26;" d="M28.659,436.199c8.747,3.492,18.489,18.012,18.489,18.012s-15.885,4.338-24.633,0.846
											S5.822,441.986,7.768,438.489C9.32,435.701,19.911,432.707,28.659,436.199z"/>
										<g>
											
												<path style="fill:none;stroke:#667A41;stroke-width:0.75;stroke-linecap:round;stroke-linejoin:round;stroke-miterlimit:10;" d="
												M9.042,439.519c12.824,4.259,25.462,9.076,37.867,14.434"/>
											
												<path style="fill:none;stroke:#667A41;stroke-width:0.75;stroke-linecap:round;stroke-linejoin:round;stroke-miterlimit:10;" d="
												M11.158,445.216c1.421-1.188,2.842-2.375,4.263-3.563c-0.393-1.634-0.835-3.233-1.227-4.866"/>
											
												<path style="fill:none;stroke:#667A41;stroke-width:0.75;stroke-linecap:round;stroke-linejoin:round;stroke-miterlimit:10;" d="
												M17.279,449.398c1.688-1.803,3.462-3.525,5.315-5.158c-0.515-2.601-1.261-5.198-2.032-7.734"/>
											
												<path style="fill:none;stroke:#667A41;stroke-width:0.75;stroke-linecap:round;stroke-linejoin:round;stroke-miterlimit:10;" d="
												M28.502,437.353c0.425,3.151,0.949,6.483,1.375,9.634c-1.937,2.171-3.775,4.43-5.506,6.769"/>
											
												<path style="fill:none;stroke:#667A41;stroke-width:0.75;stroke-linecap:round;stroke-linejoin:round;stroke-miterlimit:10;" d="
												M32.112,454.347c1.491-1.602,2.983-3.204,4.474-4.806c-0.425-2.276-0.768-4.631-0.921-6.942"/>
											
												<path style="fill:none;stroke:#667A41;stroke-width:0.75;stroke-linecap:round;stroke-linejoin:round;stroke-miterlimit:10;" d="
												M38.376,455.106c0.946-1.244,2.069-2.352,3.326-3.28c-0.338-1.527-0.613-3.33-0.62-4.894"/>
										</g>
									</g>
									<g>
										<g>
											<g>
												<path style="fill:#FCA51A;" d="M40.458,414.933c6.69,8.539,4.522,12.826-1.182,14.246
													c-5.704,1.421-12.784-0.563-19.474-9.102c-5.284-6.745-5.186-16.449-4.911-20.229c0.057-0.788,0.88-1.272,1.597-0.94
													C20.997,401.001,34.891,407.828,40.458,414.933z"/>
												<path style="fill:#FCA51A;" d="M30.816,416.572c-0.941,10.807,3.216,13.214,8.77,11.289
													c5.554-1.925,10.402-7.453,11.343-18.26c0.783-8.996-5.236-17.479-7.276-20.07c-0.319-0.405-0.936-0.381-1.212,0.055
													C40.172,393.173,31.631,407.211,30.816,416.572z"/>
												<path style="fill:#FFD63E;" d="M38.29,419.872c8.272,7.018,7.011,11.653,1.71,14.193
													c-5.301,2.54-12.636,2.022-20.908-4.995c-6.534-5.543-8.391-15.069-8.882-18.826c-0.102-0.783,0.606-1.423,1.374-1.242
													C16.423,410.143,31.407,414.033,38.29,419.872z"/>
												<path style="fill:#FFD63E;" d="M37.028,419.929c-3.365,10.312,0.139,13.599,5.985,12.982
													c5.846-0.617,11.82-4.903,15.185-15.215c2.801-8.584-1.14-18.211-2.54-21.197c-0.219-0.466-0.826-0.583-1.192-0.221
													C51.441,399.258,39.942,410.996,37.028,419.929z"/>
												<path style="fill:#FFD63E;" d="M44.896,411.459c3.993,12.3,1.263,18.178-3.914,19.859
													c-5.177,1.681-10.84-1.473-14.833-13.772c-3.231-9.951-0.99-23.941-0.017-28.921c0.162-0.831,1.17-1.158,1.79-0.581
													C31.634,391.502,41.665,401.507,44.896,411.459z"/>
												<g>
													<path style="fill:#FBB41C;" d="M41.338,421.133c1.591,4.933,0.572,11.77,0.572,11.77s-4.823-4.952-6.414-9.885
														c-1.591-4.933-0.962-7.459,0.651-7.979C37.76,414.519,39.747,416.2,41.338,421.133z"/>
													<path style="fill:#FBB41C;" d="M50.578,423.698c-2.26,4.665-7.723,8.901-7.723,8.901s-0.062-6.912,2.198-11.577
														c2.26-4.665,4.46-6.055,5.986-5.316C52.565,416.444,52.838,419.033,50.578,423.698z"/>
													<path style="fill:#FBB41C;" d="M32.166,425.183c4.504,2.566,8.365,8.3,8.365,8.3s-6.901-0.4-11.405-2.966
														c-4.503-2.566-5.743-4.855-4.904-6.328C25.062,422.716,27.662,422.617,32.166,425.183z"/>
												</g>
											</g>
											<path style="fill:#3F5A26;" d="M29.794,435.525c4.429,1.369,13.447,1.505,13.447,1.505s8.392-6.436,10.918-10.323
												c-0.821-0.659-2.21-0.461-3.092,0.113c-0.883,0.574-1.516,1.45-2.239,2.215c-0.723,0.765-1.635,1.464-2.687,1.499
												c-1.159,0.038-2.167-0.723-3.141-1.351c-0.974-0.628-2.211-1.164-3.257-0.663c-1.53,0.734-1.469,3.031-2.705,4.194
												c-0.97,0.913-2.456,0.894-3.787,0.92C31.919,433.661,30.447,434.365,29.794,435.525z"/>
										</g>
										<path style="fill:none;stroke:#445C2A;stroke-width:2;stroke-miterlimit:10;" d="M41.753,434.992
											c5.217,15.928,9.254,32.242,12.067,48.765"/>
									</g>
								</g>
							</g>
							<g>
								<path style="fill:#385320;" d="M156.877,492.88c0.08,4.68-5.49,12.11-9.85,12.11c-59.22,0-102.22,0.71-162.86,0.71
									c-4.19-3.5-6.45-7.23-5.22-12.55c1.23-5.32,5.87-9.73,11.18-11.03c-4.39-3.76-5.03-11.12-1.37-15.59
									c3.66-4.46,11.66-3.89,16.2-0.33c-0.95-3.32-0.69-6.87,0.5-10.11c1.35-3.71,3.91-7.03,7.26-9.15
									c6.27-3.96,14.72-3.82,21.22-0.25c6.5,3.58,12.63,10.18,14.23,17.42c3.88-4.66,13.69-6.21,19.63-4.91
									c-1.06-6.64,4.12-13.36,10.66-14.94c6.54-1.57,13.68,1.47,17.91,6.69c4.24,5.22,4.16,12.45,3.63,19.15
									c5.72-5.99,17.16-3.93,22.69,2.23c2.59-6.48,11.11-9.8,17.4-6.78c6.29,3.03,9.7,13.57,6.27,19.64
									c4.52-1.02,9.56,2.27,10.44,6.83C156.847,492.29,156.877,492.58,156.877,492.88z"/>
								<path style="fill:#526B2A;" d="M156.877,492.88c-0.64-0.63-1.35-1.21-2.11-1.7c-4.19-2.72-9.66-2.6-14.05-0.2
									c1.02-3.7,0.93-7.69-0.24-11.34c-0.92-2.84-2.84-5.73-5.78-6.3c-2.13-0.4-4.36,0.55-5.93,2.06c-1.57,1.5-1.77,3.75-2.6,5.76
									c-4.13-4.46-9.95-7.33-16.01-7.88s-12.48,0.25-17.36,3.89c1.94-4.88,2.43-10.32,1.39-15.46c-0.51-2.5-1.43-5.01-3.23-6.82
									c-2.72-2.72-7.18-3.29-10.74-1.83c-3.56,1.46-6.22,4.7-7.52,8.32c-1.3,3.63-1.51,7.65-0.92,11.45
									c-4.84-2.77-10.61-3.88-16.14-3.1c-5.52,0.78-10.14,1.89-14.03,5.9c-0.65-9.3-7.12-17.94-15.87-21.17
									c-6.57-2.43-14.14-1.7-20.28,1.63c1.35-3.71,3.91-7.03,7.26-9.15c6.27-3.96,14.72-3.82,21.22-0.25
									c6.5,3.58,12.63,10.18,14.23,17.42c3.88-4.66,13.69-6.21,19.63-4.91c-1.06-6.64,4.12-13.36,10.66-14.94
									c6.54-1.57,13.68,1.47,17.91,6.69c4.24,5.22,4.16,12.45,3.63,19.15c5.72-5.99,17.16-3.93,22.69,2.23
									c2.59-6.48,11.11-9.8,17.4-6.78c6.29,3.03,9.7,13.57,6.27,19.64c4.52-1.02,9.56,2.27,10.44,6.83
									C156.847,492.29,156.877,492.58,156.877,492.88z"/>
							</g>
						</g>
						<g>
							<g>
								<g>
									<g>
										<path style="fill:#3F5A26;" d="M314.598,460.029c-5.396,8.208-22.267,15.129-22.267,15.129s-1.113-17.138,4.282-25.346
											c5.396-8.208,16.843-14.326,20.009-11.607C319.147,440.373,319.994,451.82,314.598,460.029z"/>
										<g>
											
												<path style="fill:none;stroke:#667A41;stroke-width:0.75;stroke-linecap:round;stroke-linejoin:round;stroke-miterlimit:10;" d="
												M315.304,439.291c-7.031,12.214-14.594,24.121-22.66,35.677"/>
											
												<path style="fill:none;stroke:#667A41;stroke-width:0.75;stroke-linecap:round;stroke-linejoin:round;stroke-miterlimit:10;" d="
												M309.04,440.262c0.917,1.7,1.833,3.4,2.75,5.101c1.751-0.06,3.478-0.177,5.229-0.237"/>
											
												<path style="fill:none;stroke:#667A41;stroke-width:0.75;stroke-linecap:round;stroke-linejoin:round;stroke-miterlimit:10;" d="
												M303.489,445.643c1.49,2.101,2.879,4.274,4.16,6.509c2.765,0.017,5.575-0.202,8.328-0.46"/>
											
												<path style="fill:none;stroke:#667A41;stroke-width:0.75;stroke-linecap:round;stroke-linejoin:round;stroke-miterlimit:10;" d="
												M313.452,459.627c-3.308-0.224-6.823-0.385-10.131-0.608c-1.813-2.433-3.738-4.783-5.766-7.04"/>
											
												<path style="fill:none;stroke:#667A41;stroke-width:0.75;stroke-linecap:round;stroke-linejoin:round;stroke-miterlimit:10;" d="
												M295.333,459.766c1.325,1.859,2.651,3.717,3.976,5.576c2.415,0.041,4.893,0.183,7.285,0.509"/>
											
												<path style="fill:none;stroke:#667A41;stroke-width:0.75;stroke-linecap:round;stroke-linejoin:round;stroke-miterlimit:10;" d="
												M293.249,466.007c1.073,1.226,1.971,2.606,2.657,4.084c1.631-0.026,3.53,0.069,5.13,0.389"/>
										</g>
									</g>
									<g>
										<path style="fill:#3F5A26;" d="M277.311,441.696c7.719,6.076,13.177,23.475,13.177,23.475s-17.17-0.35-24.889-6.426
											c-7.719-6.076-12.839-18.002-9.86-20.926C258.114,435.489,269.592,435.621,277.311,441.696z"/>
										<g>
											
												<path style="fill:none;stroke:#667A41;stroke-width:0.75;stroke-linecap:round;stroke-linejoin:round;stroke-miterlimit:10;" d="
												M256.709,439.226c11.57,8.046,22.79,16.595,33.617,25.617"/>
											
												<path style="fill:none;stroke:#667A41;stroke-width:0.75;stroke-linecap:round;stroke-linejoin:round;stroke-miterlimit:10;" d="
												M257.143,445.55c1.772-0.768,3.544-1.537,5.316-2.305c0.09-1.75,0.12-3.48,0.209-5.23"/>
											
												<path style="fill:none;stroke:#667A41;stroke-width:0.75;stroke-linecap:round;stroke-linejoin:round;stroke-miterlimit:10;" d="
												M262.031,451.54c2.221-1.305,4.504-2.504,6.84-3.591c0.253-2.754,0.273-5.572,0.251-8.336"/>
											
												<path style="fill:none;stroke:#667A41;stroke-width:0.75;stroke-linecap:round;stroke-linejoin:round;stroke-miterlimit:10;" d="
												M276.813,442.804c-0.505,3.277-0.965,6.765-1.469,10.042c-2.579,1.599-5.084,3.317-7.505,5.146"/>
											
												<path style="fill:none;stroke:#667A41;stroke-width:0.75;stroke-linecap:round;stroke-linejoin:round;stroke-miterlimit:10;" d="
												M275.408,460.869c1.965-1.162,3.93-2.325,5.894-3.487c0.247-2.402,0.599-4.859,1.128-7.216"/>
											
												<path style="fill:none;stroke:#667A41;stroke-width:0.75;stroke-linecap:round;stroke-linejoin:round;stroke-miterlimit:10;" d="
												M281.449,463.477c1.313-0.965,2.764-1.742,4.296-2.299c0.113-1.628,0.37-3.512,0.824-5.079"/>
										</g>
									</g>
									<g>
										<g>
											<g>
												<path style="fill:#FCA51A;" d="M285.294,418.03c5.74,9.749,2.909,13.882-3.184,14.565
													c-6.092,0.683-13.139-2.342-18.879-12.091c-4.534-7.701-3.096-17.719-2.291-21.589c0.168-0.806,1.085-1.194,1.78-0.752
													C267.094,400.947,280.518,409.918,285.294,418.03z"/>
												<path style="fill:#FCA51A;" d="M275.1,418.396c-2.461,11.042,1.505,14.103,7.512,12.878
													c6.007-1.225,11.78-6.272,14.241-17.315c2.049-9.192-3.006-18.791-4.758-21.751c-0.274-0.462-0.915-0.522-1.26-0.111
													C287.995,395.495,277.232,408.831,275.1,418.396z"/>
												<path style="fill:#FFD63E;" d="M282.373,422.837c7.585,8.394,5.643,13.012-0.187,14.908
													c-5.83,1.895-13.341,0.35-20.926-8.044c-5.992-6.63-6.599-16.733-6.59-20.686c0.002-0.824,0.822-1.388,1.592-1.095
													C261.107,409.768,276.062,415.853,282.373,422.837z"/>
												<path style="fill:#FFD63E;" d="M281.06,422.722c-4.899,10.198-1.729,14.077,4.399,14.245
													c6.128,0.168,12.895-3.44,17.794-13.638c4.078-8.489,1.329-18.983,0.294-22.263c-0.162-0.512-0.773-0.716-1.202-0.393
													C298.808,403.337,285.303,413.888,281.06,422.722z"/>
												<path style="fill:#FFD63E;" d="M290.361,415.049c2.434,13.266-1.198,18.966-6.781,19.991
													c-5.583,1.025-11.003-3.015-13.437-16.281c-1.969-10.732,2.273-24.886,3.965-29.9c0.282-0.836,1.369-1.036,1.93-0.354
													C279.4,392.591,288.391,404.317,290.361,415.049z"/>
												<g>
													<path style="fill:#FBB41C;" d="M285.35,424.561c0.966,5.319-1.03,12.247-1.03,12.247s-4.304-5.784-5.27-11.103
														c-0.966-5.319,0.033-7.843,1.772-8.159C282.563,417.23,284.384,419.242,285.35,424.561z"/>
													<path style="fill:#FBB41C;" d="M294.549,428.484c-2.979,4.511-9.21,8.138-9.21,8.138s0.888-7.155,3.867-11.666
														c2.979-4.511,5.445-5.645,6.92-4.671C297.602,421.26,297.528,423.973,294.549,428.484z"/>
													<path style="fill:#FBB41C;" d="M275.31,427.484c4.302,3.273,7.504,9.733,7.504,9.733s-7.079-1.364-11.381-4.637
														c-4.302-3.273-5.269-5.81-4.198-7.217C268.306,423.956,271.008,424.211,275.31,427.484z"/>
												</g>
											</g>
											<path style="fill:#3F5A26;" d="M271.434,437.849c4.39,2.026,13.694,3.408,13.694,3.408s9.562-5.498,12.709-9.168
												c-0.758-0.794-2.221-0.781-3.213-0.309c-0.991,0.472-1.766,1.29-2.62,1.981c-0.853,0.691-1.892,1.288-2.985,1.179
												c-1.203-0.12-2.14-1.045-3.061-1.829c-0.921-0.784-2.126-1.508-3.276-1.133c-1.682,0.548-1.937,2.931-3.374,3.963
												c-1.128,0.81-2.662,0.586-4.042,0.43C273.887,436.215,272.268,436.739,271.434,437.849z"/>
										</g>
										<path style="fill:none;stroke:#445C2A;stroke-width:2;stroke-miterlimit:10;" d="M284.291,439.56
											c5.072,15.124,7.94,30.986,8.486,46.928"/>
									</g>
								</g>
								<g>
									<g>
										<path style="fill:#3F5A26;" d="M350.175,478.727c-8.039,5.645-26.273,5.868-26.273,5.868s5.274-16.344,13.313-21.989
											c8.039-5.645,20.934-7.119,22.877-3.425C361.642,462.127,358.214,473.082,350.175,478.727z"/>
										<g>
											
												<path style="fill:none;stroke:#667A41;stroke-width:0.75;stroke-linecap:round;stroke-linejoin:round;stroke-miterlimit:10;" d="
												M358.467,459.706c-11.034,8.767-22.449,17.054-34.203,24.829"/>
											
												<path style="fill:none;stroke:#667A41;stroke-width:0.75;stroke-linecap:round;stroke-linejoin:round;stroke-miterlimit:10;" d="
												M352.286,458.303c0.226,1.918,0.453,3.836,0.679,5.755c1.65,0.589,3.299,1.116,4.949,1.705"/>
											
												<path style="fill:none;stroke:#667A41;stroke-width:0.75;stroke-linecap:round;stroke-linejoin:round;stroke-miterlimit:10;" d="
												M345.143,461.262c0.612,2.502,1.103,5.034,1.472,7.583c2.565,1.034,5.258,1.864,7.912,2.638"/>
											
												<path style="fill:none;stroke:#667A41;stroke-width:0.75;stroke-linecap:round;stroke-linejoin:round;stroke-miterlimit:10;" d="
												M349.258,477.932c-2.994-1.426-6.202-2.869-9.195-4.295c-0.79-2.93-1.715-5.823-2.77-8.668"/>
											
												<path style="fill:none;stroke:#667A41;stroke-width:0.75;stroke-linecap:round;stroke-linejoin:round;stroke-miterlimit:10;" d="
												M332.36,471.39c0.548,2.216,1.096,4.432,1.644,6.648c2.23,0.927,4.482,1.971,6.586,3.155"/>
											
												<path style="fill:none;stroke:#667A41;stroke-width:0.75;stroke-linecap:round;stroke-linejoin:round;stroke-miterlimit:10;" d="
												M328.125,476.426c0.547,1.535,0.873,3.149,0.967,4.776c1.526,0.577,3.257,1.364,4.627,2.25"/>
										</g>
									</g>
									<g>
										<g>
											<g>
												<path style="fill:#FCA51A;" d="M346.322,436.388c-1.153,11.254-5.883,12.906-11.195,9.846
													c-5.313-3.06-9.196-9.672-8.043-20.927c0.911-8.89,8.006-16.108,10.947-18.748c0.613-0.55,1.582-0.319,1.879,0.449
													C341.783,411.843,347.281,427.024,346.322,436.388z"/>
												<path style="fill:#FCA51A;" d="M337.893,430.643c-8.526,7.437-7.145,12.252-1.58,14.825
													c5.565,2.573,13.206,1.928,21.732-5.509c7.097-6.19,8.713-16.918,9.056-20.34c0.053-0.534-0.428-0.963-0.949-0.836
													C361.85,419.836,345.278,424.201,337.893,430.643z"/>
												<path style="fill:#FFD63E;" d="M341.12,438.53c1.136,11.256-3.164,13.826-8.984,11.898
													c-5.82-1.928-10.955-7.623-12.091-18.879c-0.897-8.891,4.6-17.39,6.949-20.568c0.49-0.662,1.485-0.631,1.931,0.062
													C331.733,415.401,340.174,429.164,341.12,438.53z"/>
												<path style="fill:#FFD63E;" d="M340.13,437.659c-9.989,5.312-9.734,10.315-4.897,14.082
													c4.837,3.766,12.426,4.869,22.415-0.442c8.315-4.422,12.319-14.504,13.428-17.759c0.173-0.509-0.198-1.035-0.736-1.029
													C365.913,432.56,348.783,433.057,340.13,437.659z"/>
												<path style="fill:#FFD63E;" d="M352.169,436.989c-5.9,12.128-12.204,14.568-17.308,12.085
													c-5.105-2.483-7.077-8.949-1.177-21.077c4.773-9.812,16.578-18.7,20.912-21.736c0.723-0.507,1.717-0.023,1.765,0.858
													C356.646,412.404,356.942,427.177,352.169,436.989z"/>
												<g>
													<path style="fill:#FBB41C;" d="M342.497,441.682c-2.374,4.857-8.086,9.255-8.086,9.255s-0.04-7.209,2.334-12.066
														s4.674-6.299,6.262-5.522C344.595,434.125,344.87,436.826,342.497,441.682z"/>
													<path style="fill:#FBB41C;" d="M347.582,450.294c-5.073,1.869-12.241,1.098-12.241,1.098s4.955-5.237,10.027-7.106
														s7.731-1.321,8.342,0.338C354.322,446.283,352.654,448.425,347.582,450.294z"/>
													<path style="fill:#FBB41C;" d="M332.677,438.088c1.526,5.186,0.278,12.287,0.278,12.287s-4.895-5.293-6.42-10.479
														c-1.526-5.186-0.802-7.802,0.894-8.301C329.125,431.095,331.151,432.902,332.677,438.088z"/>
												</g>
											</g>
											<path style="fill:#3F5A26;" d="M323.412,444.14c2.336,4.233,9.012,10.86,9.012,10.86s10.96,1.237,15.67,0.146
												c-0.141-1.089-1.326-1.945-2.405-2.153c-1.078-0.207-2.187-0.008-3.284,0.043c-1.097,0.051-2.287-0.083-3.103-0.818
												c-0.898-0.81-1.105-2.11-1.382-3.287c-0.277-1.177-0.819-2.474-1.967-2.854c-1.68-0.556-3.297,1.214-5.066,1.193
												c-1.389-0.016-2.491-1.105-3.511-2.049C326.357,444.278,324.742,443.741,323.412,444.14z"/>
										</g>
										<path style="fill:none;stroke:#445C2A;stroke-width:2;stroke-miterlimit:10;" d="M333.548,452.881
											c-7.199,13.928-10.723,29.735-10.122,45.402"/>
									</g>
								</g>
							</g>
							<g>
								<path style="fill:#385320;" d="M380.488,505.907c-40.477,0.32-89.344,8.342-129.258,1.581
									c-5.054-0.854-8.264-7.265-5.907-11.824c2.347-4.559,9.438-5.665,13.065-2.037c-0.824-1.872-0.776-4.578-0.048-6.945
									c0.543-1.765,1.465-3.346,2.687-4.268c2.852-2.153,7.188-2.056,9.942,0.223c-1.474-3.977-0.728-10.437,1.785-13.851
									c2.512-3.414,7.285-5.17,11.261-3.705c3.987,1.465,6.499,6.353,4.937,10.301c1.843-2.822,6.14-4.782,9.399-3.957
									c3.269,0.824,5.849,3.851,6.14,7.207c2.958-3.56,6.247-6.848,10.553-8.536c4.307-1.698,9.719-1.261,12.891,2.115
									c2.609,2.784,2.755,7.672,0.378,10.418c2.095-0.931,5.063-0.815,7.188-0.398c2.881,0.572,5.325,2.929,5.985,5.791
									c3.327-4.472,6.247-8.72,11.368-10.912c5.122-2.192,11.63-1.872,15.636,1.998c3.531,3.405,3.957,9.758,0.786,13.23
									c2.609-1.843,5.606-2.26,9.069-2.056c3.434,0.204,6.819,2.26,8.303,5.277c0.31,0.621,0.543,1.29,0.669,1.988
									C388.073,501.629,384.63,506.198,380.488,505.907z"/>
								<path style="fill:#526B2A;" d="M386.647,495.557c-0.524-0.145-1.057-0.272-1.581-0.388
									c-6.974-1.503-13.415-2.085-20.311-0.281c2.367-3.211,0.863-8.254-2.532-10.35c-3.385-2.105-7.944-1.61-11.378,0.427
									c-3.434,2.037-4.539,5.684-6.47,9.176c-3.453-3.608-8.4-5.742-13.395-5.781c-5.005-0.039-10.253,1.3-13.764,4.86
									c1.3-1.746,2.629-3.57,3.046-5.703c0.407-2.134-0.398-4.666-2.386-5.539c-1.649-0.727-3.569-0.145-5.199,0.621
									c-3.647,1.697-6.635,3.482-9.089,6.673c-3.094-4.355-10.185-5.112-14.501-1.979c1.203-3.075-0.941-6.829-4.084-7.837
									c-3.143-1.018-6.751,0.427-8.807,3.007c-2.056,2.58-2.357,5.762-1.979,9.04c-1.523-3.317-4.772-5.781-8.381-6.344
									c-2.57-0.398-5.277,0.174-7.498,1.523c0.543-1.765,1.465-3.346,2.687-4.268c2.852-2.153,7.188-2.056,9.942,0.223
									c-1.474-3.977-0.728-10.437,1.785-13.851c2.512-3.414,7.285-5.17,11.261-3.705c3.987,1.465,6.499,6.353,4.937,10.301
									c1.843-2.822,6.14-4.782,9.399-3.957c3.269,0.824,5.849,3.851,6.14,7.207c2.958-3.56,6.247-6.848,10.553-8.536
									c4.307-1.698,9.719-1.261,12.891,2.115c2.609,2.784,2.755,7.672,0.378,10.418c2.095-0.931,5.063-0.815,7.188-0.398
									c2.881,0.572,5.325,2.929,5.985,5.791c3.327-4.472,6.247-8.72,11.368-10.912c5.122-2.192,11.63-1.872,15.636,1.998
									c3.531,3.405,3.957,9.758,0.786,13.23c2.609-1.843,5.606-2.26,9.069-2.056C381.778,490.484,385.163,492.54,386.647,495.557z
									"/>
							</g>
						</g>
						<g>
							<g>
								<g>
									<g>
										<g>
											<path style="fill:#FA6142;" d="M535.393,449.14c-2.943,2.22-6.118,4.122-9.467,5.663c-0.958,0.445-2.35,0.733-2.86-0.19
												c-0.287-0.523-0.088-1.201,0.309-1.638c0.397-0.437,0.956-0.697,1.496-0.939c1.992-0.899,3.997-1.798,5.989-2.697
												c-4.196,2.054-8.99,2.879-13.639,2.361c-0.834-0.092-1.789-0.328-2.128-1.092c-0.27-0.623,0.008-1.374,0.5-1.838
												c0.492-0.465,1.151-0.695,1.803-0.895c4.061-1.228,8.437-1.427,12.587-0.583c-1.846-1.074-4.54-2.19-4.658-4.319
												c-0.039-0.727,1.143-0.941,1.871-0.873c0.722,0.062,1.388,0.418,2.015,0.797
												C531.722,444.422,533.865,446.529,535.393,449.14z"/>
											<g>
												<path style="fill:none;stroke:#445C2A;stroke-miterlimit:10;" d="M534.831,449.122
													c27.862,8.547,52.138,28.224,66.269,53.712"/>
												<path style="fill:none;stroke:#445C2A;stroke-miterlimit:10;" d="M585.003,471.802c0.441,4.026,1.575,8.77,3.186,12.486
													"/>
												<path style="fill:none;stroke:#445C2A;stroke-miterlimit:10;" d="M552.003,464.329
													c4.306-1.148,8.844-1.416,13.255-0.781"/>
											</g>
											<path style="fill:#FA6142;" d="M554.086,463.765c-2.51,3.84-5.427,7.405-8.699,10.622
												c-0.934,0.925-2.444,1.849-3.429,0.983c-0.556-0.491-0.609-1.37-0.329-2.049c0.28-0.679,0.826-1.219,1.356-1.73
												c1.954-1.892,3.922-3.79,5.876-5.682c-4.048,4.174-9.314,7.16-14.976,8.513c-1.016,0.244-2.233,0.37-2.953-0.382
												c-0.579-0.615-0.57-1.612-0.189-2.363c0.381-0.751,1.055-1.299,1.734-1.807c4.237-3.149,9.278-5.227,14.493-5.989
												c-2.614-0.48-6.24-0.651-7.275-3.094c-0.351-0.834,0.942-1.584,1.823-1.81c0.872-0.232,1.801-0.096,2.695,0.085
												C547.799,459.787,551.195,461.352,554.086,463.765z"/>
											<path style="fill:#FA6142;" d="M585.336,472.84c-3.709-2.935-6.933-6.489-9.47-10.485c-0.462-0.724-0.9-1.71-0.379-2.395
												c0.408-0.541,1.249-0.567,1.848-0.25c0.599,0.318,1.014,0.889,1.401,1.452c1.57,2.227,3.135,4.444,4.705,6.671
												c-3.19-5.162-4.082-11.696-2.4-17.53c0.345-1.207,1.277-2.648,2.48-2.288c0.849,0.254,1.171,1.267,1.357,2.14
												c1.194,5.884,1.501,11.95,0.917,17.927c0.356-3.1,1.576-6.097,3.498-8.559c0.503-0.651,1.082-1.272,1.838-1.586
												c0.757-0.314,1.737-0.213,2.247,0.425c0.584,0.729,0.36,1.788,0.065,2.671
												C591.929,465.661,589.149,469.856,585.336,472.84z"/>
										</g>
										<g>
											<path style="fill:#445C2A;" d="M573.102,469.453c-5.135-6.962-6.727-16.405-4.157-24.666
												C574.74,451.843,575.996,460.794,573.102,469.453z"/>
											
												<path style="fill:none;stroke:#667A41;stroke-width:0.75;stroke-linecap:round;stroke-linejoin:round;stroke-miterlimit:10;" d="
												M569.468,448.326c0.693,7.108,1.521,14.159,3.353,21.062"/>
										</g>
										<g>
											<path style="fill:#445C2A;" d="M575.686,471.616c-7.14-2.513-15.37-1.723-21.901,2.103
												C560.786,475.804,569.338,475.23,575.686,471.616z"/>
											
												<path style="fill:none;stroke:#667A41;stroke-width:0.75;stroke-linecap:round;stroke-linejoin:round;stroke-miterlimit:10;" d="
												M556.22,473.413c6.369-0.934,12.791-1.506,19.225-1.714"/>
										</g>
										<g>
											<path style="fill:#445C2A;" d="M553.769,456.647c-6.915-5.41-11.57-13.438-12.733-21.957
												C548.916,438.937,553.72,447.934,553.769,456.647z"/>
											
												<path style="fill:none;stroke:#667A41;stroke-width:0.75;stroke-linecap:round;stroke-linejoin:round;stroke-miterlimit:10;" d="
												M542.793,437.813c3.867,6.077,7.535,12.281,10.995,18.599"/>
										</g>
										<g>
											<path style="fill:#445C2A;" d="M547.674,454.114c-8.432-1.592-17.466,0.289-24.561,5.116
												C531.172,460.776,540.855,458.681,547.674,454.114z"/>
											
												<path style="fill:none;stroke:#667A41;stroke-width:0.75;stroke-linecap:round;stroke-linejoin:round;stroke-miterlimit:10;" d="
												M527.406,458.286c6.737-1.38,13.475-2.76,20.212-4.14"/>
										</g>
									</g>
									<g>
										<g>
											<path style="fill:none;stroke:#445C2A;stroke-width:2;stroke-miterlimit:10;" d="M568.712,427.878
												c20.022,22.442,33.72,50.466,39.128,80.051"/>
											<g>
												<path style="fill:#FA6142;" d="M560.612,434.322c-0.496,3.273-2.099,6.341-3.115,9.532
													c-1.019,3.182-1.398,6.797,0.432,9.52c1.216,1.801,3.259,2.996,5.406,3.788c2.059,0.747,4.429,1.172,6.555,0.373
													c2.734-1.027,4.29-3.758,5.123-6.365c1.77-5.54,1.383-11.554-1.047-16.86c2.983,1.811,6.001,3.632,9.384,4.741
													c3.383,1.108,7.22,1.479,10.71,0.33s6.514-4.012,6.997-7.37c0.564-3.923-2.413-7.539-6.153-9.268
													c-3.74-1.729-8.117-1.978-12.085-2.313c5.186-1.316,9.487-5.579,10.528-10.433c1.041-4.854-1.236-10.036-5.574-12.672
													c-4.339-2.636-10.497-2.597-15.07,0.106c-4.573,2.703-7.312,7.911-7.061,13.204c-1.277-2.641-2.571-5.307-4.472-7.587
													c-1.911-2.277-4.523-4.152-7.624-4.718c-3.102-0.566-6.706,0.408-8.665,2.817c-1.557,1.912-1.909,4.416-1.76,6.74
													c0.373,5.811,3.636,11.27,8.383,14.788c-4.591-2.842-11.401-2.345-15.785,1.152c-4.384,3.498-5.94,9.688-3.615,14.344
													c2.325,4.656,8.338,7.358,13.92,6.257C552.014,443.251,556.464,438.513,560.612,434.322z"/>
												<g>
													<path style="fill:#E54033;" d="M566.65,422.034c0.206-4.74,1.149-9.478,2.804-14.029
														c-0.576,4.034-1.142,8.066-1.718,12.1c2.049-6.87,4.935-13.568,8.58-19.916c-2.464,6.157-6.294,15.918-8.758,22.075
														c3.712-7.234,10.062-17.548,16.041-23.403c-5.167,6.634-10.568,16.004-14.49,23.296
														c4.74-5.214,10.318-12.78,15.058-17.993c-3.991,5.685-9.457,13.23-14.08,18.51
														c4.518-3.989,10.165-10.026,14.685-14.006c-4.075,4.141-9.433,9.971-13.508,14.112
														c5.52-2.838,12.157-7.693,17.27-11.137c-5.637,4.556-11.554,8.807-17.714,12.73
														C569.429,423.655,568.031,422.95,566.65,422.034z"/>
													<path style="fill:#E54033;" d="M571.833,424.593c4.863-1.157,9.945-1.291,14.763-0.395
														c-4.648-0.598-9.481-0.268-14.074,0.962c7.68-0.562,15.419,0.369,22.537,2.724c-7.415-1.168-14.967-1.776-22.549-1.794
														c8.582,1.238,17.209,2.483,25.404,4.972c-8.509-1.288-17.016-2.566-25.525-3.854
														c7.439,2.266,15.038,4.172,22.734,5.686c-7.111-1.046-14.127-2.533-20.99-4.436c6.627,2.729,13.513,4.951,20.565,6.645
														c-7.299-1.023-15.781-3.107-22.341-6.062c4.424,3.293,10.613,6.744,16.064,8.401
														c-6.815-1.227-13.168-4.18-18.209-8.444C570.726,427.651,571.249,426.303,571.833,424.593z"/>
													<path style="fill:#E54033;" d="M563.753,431.219c-1.948,5.018-3.414,10.167-4.366,15.381
														c1.375-4.937,3.079-9.818,5.082-14.595c-1.526,6.064-2.371,12.243-2.517,18.405c0.209-6.052,1.414-12.104,3.552-17.914
														c-0.259,6.766-0.526,13.543-0.785,20.308c0.767-6.187,1.533-12.374,2.3-18.561c1.31,6.299,1.844,12.764,1.589,19.233
														c0.495-7.087,0.22-14.177-0.821-21.142c3.036,5.345,3.868,11.56,4.64,17.634c0.367-4.903-0.204-9.83-1.669-14.469
														c1.69,2.378,2.919,5.042,3.614,7.846c-0.685-3.624-1.974-7.129-3.821-10.341c-0.339-0.596-0.708-1.183-1.27-1.608
														C567.819,430.274,565.621,430.62,563.753,431.219z"/>
													<path style="fill:#E54033;" d="M562.711,430.198c-3.36,3.134-7.113,5.904-11.147,8.249
														c3.138-1.909,7.371-5.404,9.802-8.062c-5.514,3.753-13.304,7.5-19.926,8.673c5.957-1.619,14.239-6.084,19.481-9.259
														c-6.795,2.109-16.669,4.937-23.692,5.996c6.13-1.776,16.72-4.873,22.842-6.637c-5.815,0.614-16.1,2.551-21.917,3.156
														c6.051-1.399,16.079-3.442,22.254-3.93c-5.703-0.305-14.157-0.306-20.385-1.253c6.119-0.067,13.982-0.01,19.605,0.514
														c-5.51-1.364-11.517-2.215-17.05-3.582c5.586,0.741,11.172,1.483,16.758,2.224c0.664,0.091,1.351,0.186,1.875,0.552
														C562.501,427.733,562.31,429.847,562.711,430.198z"/>
													<path style="fill:#E54033;" d="M565.111,422.413c0.091-4.727-0.507-9.44-1.778-13.966
														c0.632,3.787,0.885,7.649,0.759,11.509c-1.22-5.042-3.081-9.936-5.528-14.528c1.927,4.471,3.826,11.759,5.01,16.477
														c-3.137-5.435-6.972-13.416-10.109-18.852c2.038,5.179,6.263,14.56,8.938,19.464
														c-4.18-4.632-10.312-13.748-12.256-19.565c1.186,6.008,7.006,15.753,11.048,20.473
														c-3.272-3.042-9.009-10.7-10.974-14.609c1.661,4.565,6.62,11.996,10.112,15.519
														c-3.353-2.516-8.787-8.465-11.714-11.396c3.67,4.863,7.888,9.356,12.566,13.406
														C562.366,425.385,563.527,424.422,565.111,422.413z"/>
												</g>
												<g style="enable-background:new    ;">
													<path style="fill:#FFE473;" d="M572.614,428.601c-0.613,1.875-2.379,3.3-4.487,3.9
														c-2.248,0.64-4.786,0.099-6.404-1.365c-2.677-2.423-2.138-7.118,1.125-9.259c4.133-2.71,9.794,0.907,9.992,5.041
														C572.868,427.509,572.787,428.073,572.614,428.601z"/>
												</g>
											</g>
										</g>
										<g>
											<path style="fill:#445C2A;" d="M597.652,472.38c-3.246-7.146-3.868-15.451-1.721-23.001
												c2.147-7.55,7.044-14.285,13.565-18.655C610.137,445.752,606.5,460.216,597.652,472.38z"/>
											
												<path style="fill:none;stroke:#667A41;stroke-width:0.75;stroke-linecap:round;stroke-linejoin:round;stroke-miterlimit:10;" d="
												M607.611,435.389c-5.674,10.904-9.173,22.934-10.232,35.18"/>
										</g>
									</g>
								</g>
								<g>
									<g>
										<g>
											<path style="fill:none;stroke:#445C2A;stroke-miterlimit:10;" d="M710.246,385.923
												c-16.355,37.356-18.461,80.747-5.801,119.511"/>
											<path style="fill:none;stroke:#445C2A;stroke-miterlimit:10;" d="M711.209,406.55
												c-6.027,4.835-10.763,11.977-12.732,19.448"/>
											<path style="fill:none;stroke:#445C2A;stroke-miterlimit:10;" d="M690.971,422.063
												c2.856,5.659,4.808,11.774,5.758,18.041"/>
											<path style="fill:#FA6142;" d="M691.379,423.207c-4.744-2.085-9.144-4.959-12.938-8.492
												c-0.69-0.639-1.427-1.564-1.064-2.433c0.283-0.686,1.167-0.947,1.889-0.776c0.723,0.171,1.321,0.661,1.886,1.151
												c2.28,1.926,4.552,3.843,6.833,5.768c-4.81-4.588-7.563-11.266-7.395-17.914c0.032-1.375,0.621-3.16,1.995-3.112
												c0.97,0.034,1.591,1.019,2.03,1.893c2.893,5.905,4.897,12.249,5.933,18.746c-0.48-3.384-0.017-6.898,1.339-10.039
												c0.353-0.83,0.794-1.648,1.509-2.189c0.715-0.542,1.781-0.707,2.499-0.172c0.82,0.612,0.876,1.795,0.808,2.813
												C696.38,413.773,694.595,418.988,691.379,423.207z"/>
											<path style="fill:#FA6142;" d="M710.021,407.126c5.021-0.202,10.013-0.941,14.875-2.21
												c1.395-0.359,3.111-1.259,2.851-2.672c-0.149-0.799-0.945-1.342-1.741-1.461c-0.796-0.118-1.61,0.091-2.388,0.303
												c-2.877,0.773-5.767,1.558-8.644,2.331c6.199-1.461,11.966-4.733,16.42-9.297c0.8-0.818,1.603-1.891,1.3-2.991
												c-0.254-0.89-1.195-1.442-2.116-1.506c-0.921-0.064-1.815,0.262-2.674,0.615c-5.342,2.215-10.129,5.786-13.775,10.261
												c1.018-2.727,2.894-6.232,1.179-8.579c-0.587-0.799-2.018-0.005-2.727,0.697c-0.708,0.69-1.102,1.64-1.435,2.582
												C709.813,398.98,709.376,403.053,710.021,407.126z"/>
											<path style="fill:#FA6142;" d="M709.875,386.961c3.771-1.445,7.38-3.291,10.756-5.508
												c0.969-0.632,2.045-1.758,1.483-2.767c-0.319-0.57-1.065-0.779-1.701-0.664c-0.636,0.115-1.202,0.484-1.74,0.845
												c-1.991,1.329-3.99,2.669-5.981,3.998c4.344-2.706,7.892-6.681,10.109-11.3c0.399-0.829,0.734-1.852,0.221-2.611
												c-0.422-0.612-1.281-0.79-1.998-0.602c-0.717,0.188-1.314,0.666-1.877,1.155c-3.497,3.06-6.223,7.01-7.848,11.354
												c0.074-2.338,0.601-5.489-1.309-6.834c-0.652-0.458-1.538,0.515-1.897,1.232c-0.362,0.707-0.417,1.532-0.429,2.335
												C707.622,380.812,708.336,384.025,709.875,386.961z"/>
										</g>
										<g>
											<path style="fill:#445C2A;" d="M696.437,464.176c-3.895-11.296-13.657-20.385-25.202-23.463
												C677.561,450.846,685.68,458.982,696.437,464.176z"/>
											
												<path style="fill:none;stroke:#667A41;stroke-width:0.75;stroke-linecap:round;stroke-linejoin:round;stroke-miterlimit:10;" d="
												M676.253,444.636c6.948,6.25,13.834,12.569,20.658,18.954"/>
										</g>
										<g>
											<path style="fill:#445C2A;" d="M696.435,449.924c3.307-15.01,13.388-28.39,26.903-35.709
												C716.527,427.61,707.799,440.091,696.435,449.924z"/>
											
												<path style="fill:none;stroke:#667A41;stroke-width:0.75;stroke-linecap:round;stroke-linejoin:round;stroke-miterlimit:10;" d="
												M711.083,428.101c-5.291,6.951-10.309,14.11-15.039,21.454"/>
										</g>
										<g>
											<path style="fill:#445C2A;" d="M696.768,441.579c-0.647-4.096-3.875-7.26-7.127-9.832
												c-5.507-4.354-11.615-7.947-18.097-10.643C677.038,430.491,686.944,436.912,696.768,441.579z"/>
											
												<path style="fill:none;stroke:#667A41;stroke-width:0.75;stroke-linecap:round;stroke-linejoin:round;stroke-miterlimit:10;" d="
												M676.049,425.075c7.255,4.757,14.141,10.078,20.574,15.9"/>
										</g>
										<g>
											<path style="fill:#445C2A;" d="M701.587,409.951c2.851-9.05,2.943-21.438-2.707-31.297
												C699.234,387.84,696.898,401.746,701.587,409.951z"/>
											
												<path style="fill:none;stroke:#667A41;stroke-width:0.75;stroke-linecap:round;stroke-linejoin:round;stroke-miterlimit:10;" d="
												M700.117,384.507c1.121,8.237,1.673,16.551,1.649,24.864"/>
										</g>
									</g>
									<g>
										<path style="fill:none;stroke:#445C2A;stroke-width:2;stroke-miterlimit:10;" d="M729.927,448.458
											c-11.345,14.214-19.66,30.834-24.233,48.435"/>
										<g>
											<path style="fill:#445C2A;" d="M710.378,483.354c11.246-9.756,27.956-12.732,41.879-7.458
												C739.713,483.484,724.935,485.092,710.378,483.354z"/>
											
												<path style="fill:none;stroke:#667A41;stroke-width:0.75;stroke-linecap:round;stroke-linejoin:round;stroke-miterlimit:10;" d="
												M747.721,476.012c-12.181,2.357-24.362,4.714-36.544,7.071"/>
										</g>
										<g>
											<path style="fill:#FA6142;" d="M719.385,446.069c-3.32,0.424-6.747-0.285-10.132-0.391
												c-3.376-0.11-6.996,0.522-9.138,3.055c-1.414,1.681-2.012,3.998-2.187,6.306c-0.157,2.209,0.086,4.631,1.452,6.478
												c1.756,2.374,4.841,3.132,7.607,3.22c5.877,0.188,11.618-1.853,16.106-5.685c-0.935,3.402-1.871,6.841-2.013,10.438
												c-0.141,3.596,0.56,7.431,2.644,10.507c2.084,3.076,5.704,5.224,9.103,4.764c3.971-0.537,6.664-4.434,7.31-8.548
												c0.646-4.115-0.323-8.441-1.096-12.392c2.715,4.679,8.051,7.681,13.059,7.35c5.008-0.332,9.417-3.98,10.78-8.928
												s-0.38-10.927-4.274-14.626c-3.894-3.699-9.717-4.921-14.794-3.212c2.215-1.973,4.449-3.969,6.14-6.449
												c1.685-2.489,2.786-5.547,2.478-8.72c-0.308-3.173-2.253-6.408-5.138-7.647c-2.29-0.984-4.822-0.635-7.041,0.154
												c-5.547,1.971-9.953,6.655-12.06,12.245c1.493-5.251-0.875-11.737-5.49-15.032c-4.615-3.295-11.065-3.095-14.949,0.454
												c-3.884,3.549-4.848,10.145-2.232,15.268C708.322,440.181,714.161,443.196,719.385,446.069z"/>
											<g>
												<path style="fill:#E54033;" d="M733.006,448.541c4.666-1.111,9.535-1.506,14.419-1.156
													c-4.083,0.556-8.16,1.122-12.242,1.679c7.247,0.091,14.56,1.044,21.742,2.831c-6.669-0.692-17.221-1.715-23.891-2.407
													c8.062,1.607,19.85,4.927,27.198,9.121c-7.881-3.188-18.488-5.847-26.665-7.643c6.382,3.166,15.284,6.496,21.665,9.663
													c-6.633-2.308-15.483-5.534-21.897-8.569c5.129,3.29,12.563,7.11,17.685,10.404c-5.155-2.816-12.307-6.414-17.462-9.23
													c4.288,4.583,10.846,9.693,15.611,13.711c-5.991-4.221-11.762-8.798-17.282-13.703
													C732.198,451.692,732.497,450.137,733.006,448.541z"/>
												<path style="fill:#E54033;" d="M731.952,454.289c2.471,4.409,4.008,9.314,4.47,14.247
													c-0.705-4.685-2.364-9.294-4.831-13.42c2.672,7.313,3.909,15.096,3.589,22.67c-0.916-7.534-2.415-15.046-4.496-22.424
													c1.172,8.688,2.349,17.422,2.196,26.08c-1.103-8.631-2.214-17.257-3.317-25.888c-0.144,7.862,0.106,15.779,0.763,23.681
													c-0.951-7.204-1.447-14.439-1.495-21.639c-0.819,7.199-1.075,14.511-0.769,21.838
													c-1.025-7.381-1.346-16.206-0.289-23.403c-1.977,5.213-3.621,12.188-3.723,17.947
													c-0.693-6.966,0.42-13.962,3.172-20.044C728.671,454.059,730.127,454.194,731.952,454.289z"/>
												<path style="fill:#E54033;" d="M723.271,448.265c-5.418-0.505-10.832-0.506-16.165,0.012
													c5.181-0.03,10.399,0.277,15.599,0.903c-6.319,0.194-12.562,1.083-18.594,2.647c5.943-1.472,12.162-1.976,18.404-1.504
													c-6.651,1.62-13.315,3.237-19.966,4.857c6.229-0.967,12.458-1.934,18.687-2.901c-5.763,3.017-11.902,5.326-18.263,6.868
													c7.029-1.481,13.847-3.71,20.332-6.651c-4.357,4.432-10.171,6.962-15.864,9.393c4.869-1,9.503-2.92,13.609-5.628
													c-1.845,2.302-4.095,4.235-6.629,5.685c3.335-1.669,6.386-3.893,8.998-6.578c0.485-0.495,0.954-1.016,1.212-1.68
													C725.316,451.958,724.371,449.916,723.271,448.265z"/>
												<path style="fill:#E54033;" d="M723.976,446.97c-3.977-2.4-7.71-5.283-11.107-8.556
													c2.725,2.523,7.295,5.672,10.553,7.301c-5.176-4.324-10.975-10.861-13.95-16.976
													c3.224,5.345,9.858,12.163,14.396,16.382c-3.932-6.024-9.415-14.843-12.388-21.379
													c3.424,5.469,9.366,14.91,12.776,20.376c-2.206-5.485-6.937-14.95-9.135-20.44c3.035,5.497,7.798,14.683,9.981,20.553
													c-1.282-5.63-3.62-13.852-4.423-20.17c1.759,5.931,3.88,13.594,4.926,19.207c-0.199-5.736-1.034-11.812-1.236-17.572
													c0.825,5.637,1.651,11.275,2.476,16.912c0.095,0.671,0.193,1.365-0.018,1.976
													C726.314,446.083,724.206,446.482,723.976,446.97z"/>
												<path style="fill:#E54033;" d="M732.211,447.148c4.622-1.22,9.04-3.106,13.089-5.595
													c-3.507,1.663-7.193,2.978-10.982,3.923c4.566-2.582,8.81-5.746,12.598-9.397c-3.815,3.111-10.376,6.976-14.636,9.433
													c4.417-4.555,11.117-10.494,15.534-15.049c-4.473,3.415-12.426,10.12-16.454,14.079
													c3.348-5.347,10.515-13.833,15.633-17.334c-5.514,2.816-13.38,11.173-16.851,16.41
													c2.052-4.023,7.912-11.722,11.169-14.715c-3.979,2.879-9.833,9.758-12.292,14.129c1.519-3.957,5.8-10.888,7.84-14.545
													c-3.713,4.915-6.916,10.26-9.559,15.93C728.561,445.302,729.819,446.164,732.211,447.148z"/>
											</g>
											<g style="enable-background:new    ;">
												<path style="fill:#FFE473;" d="M728.27,456.158c-1.993-0.077-3.867-1.4-5.035-3.284
													c-1.245-2.009-1.421-4.627-0.445-6.606c1.615-3.274,6.33-4.05,9.315-1.468c3.78,3.269,1.829,9.775-2.137,11.112
													C729.402,456.103,728.831,456.18,728.27,456.158z"/>
											</g>
										</g>
									</g>
								</g>
								<g>
									<g>
										<path style="fill:#3F5A26;" d="M665.939,456.665c-4.676,7.113-19.296,13.111-19.296,13.111s-0.965-14.851,3.711-21.964
											c4.676-7.113,14.596-12.414,17.34-10.058C669.881,439.632,670.615,449.552,665.939,456.665z"/>
										<g>
											
												<path style="fill:none;stroke:#667A41;stroke-width:0.75;stroke-linecap:round;stroke-linejoin:round;stroke-miterlimit:10;" d="
												M666.551,438.694c-6.093,10.584-12.647,20.902-19.637,30.917"/>
											
												<path style="fill:none;stroke:#667A41;stroke-width:0.75;stroke-linecap:round;stroke-linejoin:round;stroke-miterlimit:10;" d="
												M661.123,439.536c0.794,1.473,1.589,2.947,2.383,4.42c1.518-0.052,3.014-0.154,4.531-0.206"/>
											
												<path style="fill:none;stroke:#667A41;stroke-width:0.75;stroke-linecap:round;stroke-linejoin:round;stroke-miterlimit:10;" d="
												M656.312,444.199c1.291,1.821,2.495,3.704,3.605,5.64c2.396,0.015,4.831-0.176,7.216-0.399"/>
											
												<path style="fill:none;stroke:#667A41;stroke-width:0.75;stroke-linecap:round;stroke-linejoin:round;stroke-miterlimit:10;" d="
												M664.946,456.317c-2.867-0.194-5.912-0.333-8.779-0.527c-1.571-2.108-3.239-4.145-4.997-6.1"/>
											
												<path style="fill:none;stroke:#667A41;stroke-width:0.75;stroke-linecap:round;stroke-linejoin:round;stroke-miterlimit:10;" d="
												M649.244,456.437c1.149,1.611,2.297,3.221,3.446,4.832c2.093,0.036,4.24,0.158,6.313,0.441"/>
											
												<path style="fill:none;stroke:#667A41;stroke-width:0.75;stroke-linecap:round;stroke-linejoin:round;stroke-miterlimit:10;" d="
												M647.438,461.846c0.93,1.063,1.708,2.258,2.302,3.539c1.414-0.022,3.059,0.06,4.446,0.337"/>
										</g>
									</g>
									<g>
										<path style="fill:#3F5A26;" d="M633.627,440.779c6.689,5.265,11.419,20.343,11.419,20.343s-14.879-0.304-21.568-5.569
											c-6.689-5.265-11.126-15.6-8.545-18.134C616.992,435.4,626.938,435.514,633.627,440.779z"/>
										<g>
											
												<path style="fill:none;stroke:#667A41;stroke-width:0.75;stroke-linecap:round;stroke-linejoin:round;stroke-miterlimit:10;" d="
												M615.774,438.638c10.026,6.972,19.749,14.381,29.132,22.199"/>
											
												<path style="fill:none;stroke:#667A41;stroke-width:0.75;stroke-linecap:round;stroke-linejoin:round;stroke-miterlimit:10;" d="
												M616.15,444.118c1.536-0.666,3.071-1.332,4.607-1.998c0.078-1.516,0.104-3.016,0.181-4.532"/>
											
												<path style="fill:none;stroke:#667A41;stroke-width:0.75;stroke-linecap:round;stroke-linejoin:round;stroke-miterlimit:10;" d="
												M620.386,449.309c1.924-1.131,3.903-2.17,5.927-3.111c0.219-2.386,0.237-4.828,0.217-7.224"/>
											
												<path style="fill:none;stroke:#667A41;stroke-width:0.75;stroke-linecap:round;stroke-linejoin:round;stroke-miterlimit:10;" d="
												M633.196,441.739c-0.437,2.84-0.836,5.862-1.273,8.702c-2.235,1.386-4.406,2.874-6.504,4.459"/>
											
												<path style="fill:none;stroke:#667A41;stroke-width:0.75;stroke-linecap:round;stroke-linejoin:round;stroke-miterlimit:10;" d="
												M631.978,457.394c1.703-1.007,3.405-2.015,5.108-3.022c0.214-2.082,0.519-4.211,0.977-6.253"/>
											
												<path style="fill:none;stroke:#667A41;stroke-width:0.75;stroke-linecap:round;stroke-linejoin:round;stroke-miterlimit:10;" d="
												M637.213,459.654c1.138-0.836,2.396-1.509,3.723-1.993c0.098-1.41,0.32-3.043,0.714-4.401"/>
										</g>
									</g>
									<g>
										<g>
											<g>
												<path style="fill:#FCA51A;" d="M640.545,420.27c4.974,8.448,2.52,12.03-2.759,12.622
													c-5.28,0.592-11.386-2.03-16.36-10.478c-3.929-6.673-2.682-15.355-1.985-18.708c0.145-0.699,0.94-1.035,1.542-0.651
													C624.773,405.466,636.406,413.241,640.545,420.27z"/>
												<path style="fill:#FCA51A;" d="M631.711,420.587c-2.133,9.569,1.304,12.221,6.51,11.16
													c5.206-1.062,10.209-5.435,12.341-15.004c1.775-7.965-2.605-16.284-4.123-18.848c-0.237-0.401-0.793-0.453-1.092-0.096
													C642.886,400.742,633.559,412.298,631.711,420.587z"/>
												<path style="fill:#FFD63E;" d="M638.014,424.436c6.573,7.274,4.89,11.276-0.162,12.919
													c-5.052,1.643-11.561,0.304-18.134-6.97c-5.192-5.746-5.718-14.501-5.71-17.926c0.002-0.714,0.713-1.203,1.38-0.949
													C619.585,413.11,632.545,418.384,638.014,424.436z"/>
												<path style="fill:#FFD63E;" d="M636.876,424.336c-4.245,8.837-1.498,12.199,3.812,12.344
													c5.311,0.145,11.174-2.981,15.42-11.818c3.534-7.356,1.152-16.451,0.255-19.293c-0.14-0.444-0.67-0.621-1.042-0.341
													C652.255,407.538,640.553,416.681,636.876,424.336z"/>
												<path style="fill:#FFD63E;" d="M644.935,417.687c2.109,11.496-1.038,16.436-5.877,17.324
													c-4.838,0.888-9.535-2.613-11.645-14.109c-1.707-9.3,1.97-21.566,3.437-25.911c0.245-0.725,1.187-0.898,1.672-0.307
													C635.437,398.226,643.229,408.387,644.935,417.687z"/>
												<g>
													<path style="fill:#FBB41C;" d="M640.594,425.93c0.837,4.609-0.893,10.613-0.893,10.613s-3.73-5.012-4.566-9.621
														c-0.837-4.609,0.028-6.797,1.536-7.07C638.178,419.577,639.757,421.32,640.594,425.93z"/>
													<path style="fill:#FBB41C;" d="M648.565,429.33c-2.581,3.909-7.981,7.052-7.981,7.052s0.769-6.2,3.351-10.109
														c2.581-3.909,4.718-4.892,5.997-4.048C651.211,423.069,651.146,425.42,648.565,429.33z"/>
													<path style="fill:#FBB41C;" d="M631.893,428.463c3.728,2.837,6.503,8.434,6.503,8.434s-6.135-1.182-9.863-4.018
														c-3.728-2.837-4.566-5.035-3.638-6.254C625.823,425.405,628.165,425.626,631.893,428.463z"/>
												</g>
											</g>
											<path style="fill:#3F5A26;" d="M628.534,437.445c3.804,1.755,11.867,2.953,11.867,2.953s8.286-4.764,11.013-7.945
												c-0.657-0.688-1.925-0.677-2.784-0.268c-0.859,0.409-1.531,1.118-2.27,1.717c-0.739,0.599-1.639,1.116-2.586,1.022
												c-1.043-0.104-1.855-0.906-2.653-1.585c-0.798-0.679-1.842-1.307-2.839-0.982c-1.458,0.475-1.678,2.54-2.924,3.434
												c-0.978,0.702-2.307,0.508-3.503,0.373C630.66,436.029,629.257,436.483,628.534,437.445z"/>
										</g>
										<path style="fill:none;stroke:#445C2A;stroke-width:2;stroke-miterlimit:10;" d="M639.675,438.927
											c4.395,13.106,6.88,26.851,7.354,40.667"/>
									</g>
								</g>
							</g>
							<g>
								<path style="fill:#385320;" d="M761.08,479.48c-0.84,10.03,0.03,19.65-0.23,29.7c-23.62-2.92-171.22,4.72-219.65-3.13
									c-1.62-2.09-2.26-4.84-1.92-7.46c0.22-1.76,0.89-3.47,2.01-4.86c2.76-3.46,7.99-4.67,11.99-2.79
									c-1.56-5.74,2.39-12.38,7.96-14.45c5.58-2.06,12.5,0.77,15.04,6.14c5.67-3.79,12.1-1.48,16.51,3.72
									c-0.48-7.36,4.98-15.01,12.19-16.57c7.2-1.56,15.22,2.79,17.83,9.69c3.91-1.91,9.08-0.33,11.88,3
									c-2.2-4-0.12-8.98,3.17-12.14c3.29-3.15,8.02-4.42,12.58-4.48c3.79-0.06,7.74,0.71,10.71,3.04
									c2.98,2.34,4.71,6.51,3.4,10.06c4.94-3.28,10.72-3.71,16.38-1.92c5.66,1.78,10.41,6.23,12.57,11.76
									c5.12-2.72,12.07-1.49,16.35,2.42c0.54-5.36,3.85-11.14,8.75-13.37c4.9-2.24,10.96-1.67,15.36,1.44
									c-0.2-1.77,1.29-4.6,2.76-5.59c1.46-1,3.23-1.43,4.96-1.84c3.97-0.94,8.13-1.89,12.1-0.93c0.09,0.02,0.17,0.04,0.26,0.07
									C757.91,472.04,761.4,475.5,761.08,479.48z"/>
								<path style="fill:#526B2A;" d="M754.04,470.99c-2.63,0.12-5.23,0.52-7.7,1.46c-4.94,1.87-9.27,6.48-9.07,11.76
									c-4.2-3.94-10.32-4.73-15.64-2.5c-5.31,2.24-9.07,7.76-9.2,13.52c-6.8-2.76-15.13-2.51-21.54,1.07
									c-2.01-5.4-6.34-10.02-11.55-12.47c-5.21-2.46-11.38-2.78-16.82-0.89c-0.75-4.18-4.04-8.01-8.22-8.79
									c-4.18-0.79-8.62,0.8-11.72,3.71c-3.11,2.91-4.94,7-5.58,11.21c-1.74-2.44-3.6-5.13-6.56-5.6s-6.09,0.3-8.5,2.08
									c-1.5-4.69-5.12-8.59-9.88-9.84c-4.76-1.26-10.11,0.08-13.72,3.42c-3.21,2.96-4.95,7.42-4.7,11.77
									c-0.44-1.21-1.46-2.33-2.46-3.01c-1.45-1-3.22-1.41-4.94-1.81c-1.54-0.35-3.1-0.71-4.67-0.62c-1.58,0.09-3.2,0.69-4.18,1.92
									c-2.19-4.34-8.04-6.32-12.71-5c-4.68,1.32-8.08,6.21-7.68,11.06c-5.35-1.09-10.99-0.36-15.33,2.96
									c-0.86,0.66-1.66,1.39-2.39,2.19c0.22-1.76,0.89-3.47,2.01-4.86c2.76-3.46,7.99-4.67,11.99-2.79
									c-1.56-5.74,2.39-12.38,7.96-14.45c5.58-2.06,12.5,0.77,15.04,6.14c5.67-3.79,12.1-1.48,16.51,3.72
									c-0.48-7.36,4.98-15.01,12.19-16.57c7.2-1.56,15.22,2.79,17.83,9.69c3.91-1.91,9.08-0.33,11.88,3
									c-2.2-4-0.12-8.98,3.17-12.14c3.29-3.15,8.02-4.42,12.58-4.48c3.79-0.06,7.74,0.71,10.71,3.04
									c2.98,2.34,4.71,6.51,3.4,10.06c4.94-3.28,10.72-3.71,16.38-1.92c5.66,1.78,10.41,6.23,12.57,11.76
									c5.12-2.72,12.07-1.49,16.35,2.42c0.54-5.36,3.85-11.14,8.75-13.37c4.9-2.24,10.96-1.67,15.36,1.44
									c-0.2-1.77,1.29-4.6,2.76-5.59c1.46-1,3.23-1.43,4.96-1.84c3.97-0.94,8.13-1.89,12.1-0.93
									C753.87,470.94,753.95,470.96,754.04,470.99z"/>
							</g>
						</g>
					</g>
				</g>
			</g>
		</g>
	</g>
</g>
</svg>
