<?xml version="1.0" encoding="utf-8"?>
<!-- Generator: Adobe Illustrator 27.5.0, SVG Export Plug-In . SVG Version: 6.00 Build 0)  -->
<svg version="1.1" id="Capa_1" xmlns="http://www.w3.org/2000/svg" xmlns:xlink="http://www.w3.org/1999/xlink" x="0px" y="0px"
	 viewBox="0 0 2122 2122" style="enable-background:new 0 0 2122 2122;" xml:space="preserve">
<path style="fill:#F8A92B;" d="M1642.733,1104.282c134.886-49.99,205.995-101.82,200.226-145.939
	c-5.771-44.122-87.817-75.92-231.026-89.537c-17.203-1.637-31.522-12.068-38.307-27.908c-6.782-15.834-4.456-33.396,6.226-46.977
	c88.933-113.069,122.514-194.404,94.556-229.016c-27.956-34.611-114.541-18.884-243.781,44.273
	c-15.525,7.581-33.184,6.171-47.24-3.795c-14.054-9.961-21.24-26.156-19.223-43.315c16.807-142.869,2.974-229.768-38.945-244.689
	c-41.92-14.921-107.545,43.697-184.787,165.055c-9.277,14.573-25.081,22.594-42.268,21.43c-17.189-1.16-31.776-11.216-39.016-26.906
	c-60.265-130.616-117.432-197.537-160.982-188.343c-38.538,8.11-62.601,73.479-69.588,189.035
	c-1.031,17.052-10.88,31.617-26.344,38.962c-15.464,7.342-32.979,5.774-46.841-4.2c-93.978-67.595-159.844-90.246-190.492-65.501
	c-30.636,24.746-22.346,93.908,23.971,200.005c10.28,23.547-0.989,46.687-17.43,57.374l-0.258,0.701
	c19.703,65.956,48.833,135.199,86.58,205.803l0.592,0.326l0.543-0.402c51.822-138.448,168.996-239.255,313.447-269.656
	c5.213-1.097,10.343-2.022,14.226-2.707l0.11-0.029l0.268-0.044c4.064-0.711,8.154-1.32,11.995-1.885l1.727-0.26
	c0.831-0.129,1.661-0.256,2.492-0.368c3.71-0.509,7.437-0.928,11.247-1.349l1.715-0.193c1.072-0.122,2.146-0.244,3.218-0.348
	c3.372-0.331,6.723-0.592,10.716-0.884l1.574-0.117c1.286-0.095,2.572-0.192,3.858-0.268c3.552-0.214,7.048-0.353,10.295-0.47
	l1.228-0.044c1.525-0.056,3.047-0.112,4.57-0.144c2.628-0.061,5.488-0.088,8.933-0.088c2.283-0.002,4.736,0,7.111,0.036
	c3.04,0.049,6.171,0.134,9.574,0.266c2.131,0.08,4.263,0.173,6.387,0.285c3.089,0.166,6.173,0.361,9.25,0.592
	c2.219,0.166,4.429,0.353,6.641,0.551c2.98,0.273,5.952,0.565,8.918,0.896c2.295,0.258,4.577,0.543,6.86,0.836
	c2.877,0.37,5.746,0.75,8.604,1.179c2.346,0.351,4.682,0.738,7.086,1.138c2.76,0.458,5.52,0.924,8.265,1.435
	c2.107,0.392,4.205,0.824,6.305,1.255l1.854,0.38c2.356,0.479,4.711,0.962,7.055,1.491c2.165,0.485,4.317,1.011,6.467,1.537
	l2.877,0.702c1.915,0.465,3.829,0.93,5.737,1.435c2.254,0.592,4.492,1.233,6.731,1.871l3.026,0.855
	c1.72,0.482,3.439,0.965,5.147,1.481c2.285,0.691,4.55,1.43,6.818,2.168l3.778,1.223c1.386,0.44,2.772,0.884,4.146,1.354
	c2.889,0.989,5.8,2.066,8.616,3.104l0.843,0.312c0.685,0.254,1.369,0.497,2.053,0.743c1.016,0.363,2.029,0.724,3.035,1.111
	c4.897,1.876,9.725,3.822,14.414,5.815c6.051,2.572,12.156,5.337,18.141,8.217l0.154,0.075c5.892,2.836,11.834,5.869,17.651,9.006
	l0.208,0.112c5.754,3.106,11.537,6.404,17.191,9.802l0.175,0.105c5.654,3.403,11.291,6.975,16.862,10.687
	c92.287,61.52,156.421,154.996,180.585,263.205l0.409,1.806c0.261,1.138,0.519,2.275,0.762,3.42
	c32.987,156.748-23.381,317.478-147.113,419.463l-0.192,0.687l0.575,0.419c9.905,0.232,19.851,0.349,29.859,0.349
	c85.354,0,174.228-8.451,264.626-25.179c50.034-9.26,99.695-21.06,147.603-35.074l0.395-0.346l-0.007-0.524
	c-18.967-39.318-69.111-90.234-145.014-147.245c-13.817-10.378-20.584-26.753-18.1-43.8
	C1615.374,1124.048,1626.531,1110.287,1642.733,1104.282z"/>
<path style="fill:#E29017;" d="M1784.401,1359.117l-0.046-0.321c-0.21-1.832-0.529-3.761-0.948-5.744l-0.173-0.792
	c-0.482-2.161-1.016-4.173-1.652-6.197c-1.386-4.433-3.264-9.115-5.578-13.919l-0.738-0.329
	c-47.868,14.002-97.486,25.795-147.481,35.045c-100.909,18.677-199.902,27.018-294.226,24.811h-0.015l-0.397,0.144l-0.882,0.704
	l-0.726,0.58l-0.132,0.156l-0.631,0.478l-0.831,0.641c-6.375,5.155-12.209,9.642-17.834,13.717l-0.981,0.699
	c-2.831,2.042-5.757,4.095-8.699,6.105l-1.878,1.272c-2.677,1.807-5.457,3.637-8.258,5.439l-1.915,1.225
	c-3.06,1.942-6.161,3.856-9.225,5.693l-0.926,0.563c-6.948,4.139-14.117,8.137-21.308,11.881l-2.029,1.035
	c-2.95,1.515-5.839,2.96-8.59,4.297c-0.987,0.478-1.981,0.95-2.972,1.423c-2.653,1.262-5.323,2.5-8.01,3.712l-0.492,0.222
	c-0.877,0.395-1.757,0.792-2.638,1.181c-2.729,1.203-5.537,2.404-8.59,3.671l-0.95,0.4c-0.519,0.221-1.04,0.441-1.567,0.655
	c-7.393,3.018-15.026,5.881-22.685,8.512c-0.682,0.234-1.366,0.46-2.053,0.687l-1.284,0.424c-2.709,0.904-5.433,1.793-8.168,2.648
	c-1.357,0.422-2.721,0.833-4.083,1.245c-2.558,0.767-5.128,1.518-7.708,2.246c-1.41,0.395-2.818,0.789-4.239,1.172
	c-2.712,0.733-5.442,1.432-8.18,2.117l-1.398,0.351c-0.772,0.198-1.545,0.392-2.322,0.58c-4.368,1.048-8.29,1.937-11.993,2.714
	c-24.945,5.252-50.399,8.307-75.656,9.079c-3.589,0.11-7.189,0.176-10.701,0.195c-0.804,0.005-1.586,0.007-2.388,0.007
	c-201.488,0-377.561-142.886-419.178-340.626c-0.848-4.041-1.676-8.353-2.602-13.571c-0.216-1.215-0.421-2.434-0.648-3.766
	c-0.626-3.732-1.204-7.452-1.718-11.062l-0.178-1.23c-0.078-0.524-0.156-1.05-0.227-1.574c-0.604-4.46-1.147-9.03-1.618-13.586
	c-0.056-0.529-0.102-1.06-0.151-1.589l-0.11-1.191c-0.358-3.688-0.673-7.489-0.94-11.299l-0.056-0.809
	c-0.058-0.809-0.115-1.615-0.166-2.424c-0.57-9.167-0.848-18.438-0.826-27.557l0.019-2.702c0.036-4.404,0.136-8.694,0.292-12.755
	l0.031-0.962c0.19-4.658,0.468-9.442,0.823-14.214l0.098-1.216c0.329-4.234,0.738-8.621,1.218-13.045l0.154-1.454
	c1.05-9.369,2.431-18.833,4.107-28.129l0.178-0.974c1.091-5.98,2.351-12.097,3.739-18.178c0.373-1.637,0.789-3.259,1.206-4.884
	c0.244-0.95,0.487-1.902,0.721-2.855l0.604-2.453c0.624-2.541,1.267-5.167,1.966-7.722c0.59-2.156,1.235-4.292,1.881-6.426
	l1.474-4.953c0.616-2.102,1.235-4.204,1.903-6.287c0.762-2.38,1.583-4.736,2.407-7.091l0.765-2.197
	c0.307-0.887,0.602-1.776,0.899-2.665c0.431-1.289,0.86-2.577,1.32-3.854l0.134-0.214c0.183-0.507,0.356-1.018,0.528-1.528
	c0.203-0.597,0.402-1.191,0.624-1.778l-0.034-0.514c-37.707-70.529-66.806-139.693-86.487-205.569l-0.382-0.407l-0.553,0.061
	c-1.069,0.694-2.195,1.359-3.33,1.973l-0.468,0.234c-1.747,0.914-3.683,1.756-5.81,2.523c-0.6,0.217-1.196,0.434-1.803,0.624
	c-0.875,0.27-1.764,0.512-2.66,0.731c-1.094,0.27-2.272,0.504-3.603,0.716c-0.694,0.112-1.391,0.214-2.095,0.295
	c-1.547,0.168-3.125,0.258-4.692,0.268c-0.558,0.003-1.096-0.003-1.639-0.017c-2.222-0.061-4.078-0.214-5.844-0.482
	c-13.608-2.078-26.816-3.796-39.259-5.101c-25.001-2.624-47.64-3.664-67.298-3.091l-0.422,0.014
	c-9.827,0.295-19.047,1.004-27.408,2.105c-4.249,0.558-8.366,1.23-12.241,1.995c-3.896,0.772-7.64,1.659-11.126,2.636
	c-3.515,0.984-6.874,2.085-9.988,3.279c-12.692,4.865-22.083,11.52-27.912,19.781c-1.483,2.102-2.757,4.341-3.79,6.655
	c-2.919,6.546-4.01,13.958-3.243,22.027c0.307,3.198,0.907,6.531,1.776,9.908c3.437,13.374,11.352,28.587,23.527,45.213
	c2.587,3.532,5.46,7.235,8.785,11.32c0.614,0.755,1.232,1.51,1.863,2.268c4.299,5.186,9.004,10.533,13.978,15.89
	c4.989,5.382,10.407,10.938,16.097,16.522c7.016,6.886,14.682,14.041,22.785,21.264c8.433,7.52,17.701,15.418,27.542,23.476
	c3.584,2.933,7.428,6.032,11.754,9.469c3.569,2.838,7.201,5.688,10.901,8.553c5.433,4.21,10.041,7.732,14.507,11.087
	c5.342,4.01,9.649,8.904,12.799,14.548c2.981,5.335,4.835,11.155,5.513,17.294c0.879,7.971-0.305,16.088-3.42,23.474
	c-0.782,1.856-1.69,3.669-2.697,5.389c-2.066,3.535-4.597,6.77-7.52,9.615c-3.033,2.955-6.49,5.487-10.27,7.525
	c-1.956,1.053-4.025,1.986-6.146,2.77c-32.36,11.993-61.52,24.293-86.672,36.558c-6.354,3.098-12.492,6.216-18.251,9.264
	c-2.921,1.545-5.781,3.091-8.582,4.638c-5.54,3.06-10.94,6.182-16.054,9.286c-7.664,4.65-14.804,9.333-21.223,13.917
	c-8.651,6.173-16.3,12.385-22.738,18.462c-4.87,4.602-9.143,9.218-12.697,13.722c-2.394,3.035-4.516,6.086-6.304,9.064
	c-6.409,10.67-9.001,21.109-7.706,31.026c5.771,44.121,87.818,75.92,231.026,89.539c8.714,0.829,16.896,3.973,23.664,9.099
	c3.211,2.434,6.098,5.291,8.58,8.497c3.693,4.765,6.407,10.129,8.066,15.944c1.106,3.875,1.708,7.868,1.788,11.863
	c0.214,10.682-3.25,20.875-10.017,29.479c-68.519,87.114-104.546,155.766-104.188,198.534c0.039,4.614,0.511,8.972,1.405,12.955
	c1.51,6.746,4.278,12.643,8.227,17.53c5.396,6.68,13.065,11.564,22.797,14.519c3.181,0.967,6.64,1.739,10.277,2.302
	c4.517,0.699,9.437,1.091,14.619,1.165c5.16,0.068,10.718-0.161,16.521-0.694c4.616-0.426,9.506-1.055,14.531-1.866
	c12.456-2.01,26.309-5.237,41.174-9.593c7.579-2.222,15.839-4.884,24.555-7.91c4.892-1.698,9.036-3.184,13.045-4.672
	c6.553-2.434,13.364-5.079,20.244-7.866c20.585-8.331,42.794-18.309,66.017-29.659c6.002-2.933,12.321-4.543,18.78-4.782
	c4.063-0.166,8.158,0.246,12.146,1.189c3.893,0.921,7.669,2.348,11.223,4.244c8.931,4.765,16.173,12.37,20.392,21.413
	c3.589,7.693,4.943,16.356,3.922,25.05c-1.004,8.516-1.912,16.982-2.699,25.157c-0.395,4.102-0.763,8.158-1.104,12.166
	c-1.362,16.012-2.292,31.42-2.77,45.795c-0.841,25.406-0.297,48.348,1.617,68.195c0.555,5.737,1.23,11.279,2.005,16.472
	c1.569,10.529,3.622,20.168,6.105,28.648c1.252,4.273,2.638,8.339,4.12,12.083c7.613,19.23,18.268,31.401,31.668,36.171
	c41.907,14.916,107.542-43.693,184.789-165.052c9.279-14.577,25.055-22.604,42.27-21.43c17.189,1.157,31.771,11.215,39.011,26.903
	c3.617,7.842,7.264,15.535,10.836,22.865c5.406,11.097,10.86,21.82,16.212,31.876c3.583,6.736,7.201,13.32,10.75,19.576
	c3.561,6.273,7.155,12.392,10.685,18.188c3.53,5.796,7.096,11.435,10.602,16.76c3.505,5.325,7.038,10.471,10.499,15.289
	c6.965,9.698,13.902,18.445,20.619,25.997c3.389,3.813,6.782,7.386,10.083,10.626c6.687,6.557,13.296,12.044,19.642,16.3
	c3.206,2.148,6.411,4.029,9.527,5.586c1.554,0.777,3.13,1.496,4.684,2.134c3.101,1.272,6.197,2.254,9.201,2.914
	c3.23,0.711,6.419,1.067,9.542,1.067c2.758,0,5.464-0.276,8.102-0.833c2.473-0.519,4.931-1.296,7.301-2.304
	c9.303-3.963,17.785-11.747,25.208-23.13c8.132-12.466,15.135-29.45,20.816-50.483c1.232-4.57,2.431-9.437,3.561-14.463
	c0.56-2.507,1.106-5.055,1.635-7.654c1.568-7.698,3.025-15.971,4.328-24.587c1.286-8.504,2.453-17.574,3.467-26.962
	c0.667-6.207,1.284-12.68,1.827-19.238c0.545-6.611,1.033-13.412,1.444-20.214c0.265-4.419,1.128-8.721,2.563-12.792
	c3.398-9.634,9.822-17.686,18.575-23.281c5.06-3.24,10.609-5.459,16.492-6.6c1.978-0.377,3.976-0.631,5.941-0.75
	c2.003-0.132,4.034-0.117,6.029,0.026c4.12,0.292,8.173,1.148,12.049,2.541c4.056,1.457,7.937,3.508,11.535,6.095
	c14.024,10.085,27.644,19.308,40.479,27.408c5.157,3.26,10.29,6.397,15.255,9.33c2.492,1.476,4.965,2.913,7.41,4.304
	c4.835,2.758,9.674,5.408,14.382,7.878c4.714,2.468,9.347,4.784,13.774,6.88c6.692,3.174,13.242,6.007,19.469,8.421
	c6.234,2.417,12.28,4.461,17.968,6.073c7.649,2.171,14.882,3.627,21.496,4.334c3.34,0.353,6.568,0.553,9.639,0.502
	c1.513-0.007,3.04-0.066,4.534-0.173c1.464-0.105,2.923-0.258,4.341-0.463c5.678-0.814,10.84-2.426,15.34-4.791
	c2.276-1.196,4.429-2.612,6.402-4.205c7.81-6.307,13.145-15.695,15.856-27.905c1.326-5.951,2.044-12.687,2.136-20.024
	c0.139-10.843-1.084-23.291-3.635-36.999c-4.404-23.656-12.818-51.54-25.009-82.875c-4.036-10.378-8.519-21.21-13.32-32.202
	c-1.99-4.563-3.24-9.313-3.712-14.124c-0.151-1.53-0.224-3.096-0.217-4.655c0.078-13.993,6.823-27.576,18.049-36.336
	c8.268-6.458,18.168-9.81,28.616-9.671c2.193,0.027,4.426,0.212,6.641,0.55c6.75,1.031,13.5,1.986,20.068,2.841
	c6.502,0.843,12.959,1.603,19.191,2.26c25.002,2.619,47.64,3.661,67.296,3.091l0.422-0.014c12.326-0.375,23.654-1.391,33.666-3.023
	c2.176-0.358,4.465-0.782,6.999-1.298c3.742-0.767,7.05-1.557,10.112-2.414c3.493-0.977,6.853-2.08,9.986-3.281
	c3.128-1.198,6.095-2.524,8.816-3.937c11.101-5.759,18.801-13.328,22.889-22.499c0.633-1.425,1.203-3.001,1.742-4.821l0.268-1.033
	l0.1-0.402c0.336-1.321,0.592-2.563,0.784-3.798c0.076-0.487,0.154-0.974,0.212-1.469c0.205-1.681,0.312-3.254,0.334-4.794
	l0.022-0.512C1784.73,1363.125,1784.62,1361.13,1784.401,1359.117z"/>
<path style="fill:#FFD64A;" d="M1481.479,972.09c-0.242-1.152-0.505-2.294-0.765-3.439l-0.407-1.801l-0.585-0.487
	c-62.733-2.568-113.573-9.937-159.997-23.191l-0.667,0.224l-0.031,0.704c16.18,26.051,19.547,49.564,9.476,66.207
	c-21.06,34.816-94.763,28.918-164.292-13.152c-69.525-42.069-108.95-104.617-87.885-139.432
	c8.546-14.122,25.803-21.946,49.907-22.633l0.568-0.407l-0.166-0.677c-42.806-39.018-79.837-85.34-110.066-137.681
	c-11.372-19.691-21.306-39.481-29.525-58.826l-0.682-0.37c-3.895,0.685-9.038,1.613-14.271,2.711
	c-72.156,15.189-139.434,48.746-194.56,97.048c-53.44,46.824-94.865,106.782-119.798,173.393c-0.225,0.602-0.429,1.208-0.636,1.817
	c-0.171,0.499-0.339,1.001-0.521,1.501l0.022,0.477c4.638,9.893,9.533,19.74,14.544,29.262
	c47.551,90.37,113.581,175.318,190.952,245.658c122.348,111.232,284.791,182.193,469.761,205.206l0.078,0.005l0.392-0.139
	l0.716-0.57l0.901-0.721C1458.031,1290.492,1514.565,1129.296,1481.479,972.09z"/>
<path style="fill:#F9C32B;" d="M1332.01,1392.964c-184.716-22.981-346.92-93.832-469.079-204.889
	c-77.264-70.246-143.203-155.077-190.684-245.318c-5.006-9.508-9.89-19.335-14.557-29.289l-0.595-0.346l-0.548,0.409
	c-0.504,1.379-0.97,2.772-1.432,4.166c-0.297,0.884-0.592,1.771-0.896,2.65l-0.763,2.195c-0.826,2.368-1.651,4.733-2.419,7.123
	c-0.67,2.093-1.291,4.205-1.91,6.317l-1.472,4.943c-0.648,2.146-1.298,4.29-1.89,6.455c-0.704,2.572-1.35,5.208-1.973,7.756
	l-0.604,2.448c-0.227,0.921-0.461,1.837-0.696,2.753c-0.426,1.666-0.855,3.332-1.238,5.011c-1.391,6.097-2.653,12.231-3.749,18.231
	l-0.178,0.977c-1.681,9.325-3.067,18.816-4.117,28.211l-0.158,1.459c-0.48,4.436-0.889,8.836-1.218,13.082l-0.098,1.218
	c-0.358,4.79-0.636,9.586-0.828,14.266l-0.031,0.962c-0.156,4.071-0.253,8.373-0.292,12.789l-0.019,2.706
	c-0.022,9.147,0.258,18.446,0.828,27.64c0.051,0.811,0.107,1.622,0.166,2.434l0.058,0.809c0.266,3.82,0.582,7.632,0.94,11.333
	l0.109,1.181c0.049,0.533,0.098,1.069,0.151,1.603c0.472,4.568,1.018,9.152,1.622,13.625c0.073,0.531,0.151,1.062,0.229,1.594
	l0.18,1.22c0.514,3.62,1.092,7.352,1.742,11.211c0.205,1.22,0.412,2.441,0.628,3.661c0.928,5.23,1.759,9.554,2.621,13.668
	c20.529,97.527,74.663,185.408,152.433,247.454c76.129,60.735,171.204,94.102,267.99,94.102c0.779,0,1.576-0.002,2.355-0.007
	c3.525-0.019,7.135-0.085,10.736-0.195c25.327-0.777,50.857-3.839,75.876-9.103c3.712-0.782,7.647-1.674,12.027-2.724
	c0.782-0.188,1.559-0.385,2.336-0.582l1.393-0.353c2.748-0.684,5.483-1.384,8.205-2.122c1.42-0.383,2.833-0.777,4.249-1.176
	c2.589-0.728,5.164-1.479,7.732-2.251c1.367-0.412,2.731-0.824,4.093-1.25c2.746-0.855,5.474-1.749,8.193-2.653l1.279-0.424
	c0.692-0.229,1.382-0.455,2.068-0.692c7.681-2.638,15.335-5.51,22.75-8.536c0.531-0.214,1.058-0.438,1.583-0.66l0.943-0.4
	c3.06-1.267,5.878-2.473,8.611-3.681c0.887-0.39,1.769-0.787,2.648-1.184l0.492-0.224c2.697-1.213,5.371-2.456,8.034-3.722
	c0.996-0.473,1.99-0.945,2.982-1.428c2.758-1.34,5.657-2.789,8.614-4.309l2.034-1.038c7.213-3.754,14.405-7.764,21.377-11.917
	l0.928-0.563c3.07-1.842,6.18-3.761,9.248-5.71l1.919-1.23c2.811-1.805,5.598-3.64,8.285-5.454l1.88-1.274
	c2.953-2.017,5.888-4.078,8.726-6.122l0.982-0.702c5.64-4.085,11.493-8.587,17.891-13.759l0.794-0.612l0.855-0.655l0.178-0.66
	L1332.01,1392.964z"/>
<path style="fill:#FFDD88;" d="M1299.089,702.806c-5.481-3.651-11.133-7.233-16.802-10.643l-0.176-0.105
	c-5.674-3.408-11.474-6.716-17.24-9.832l-0.207-0.112c-5.839-3.15-11.796-6.188-17.706-9.033l-0.153-0.075
	c-6.005-2.889-12.129-5.662-18.261-8.27c-4.638-1.968-9.481-3.922-14.389-5.803c-1.016-0.39-2.039-0.755-3.063-1.12
	c-0.682-0.244-1.365-0.487-2.041-0.738l-0.843-0.312c-2.824-1.042-5.744-2.119-8.646-3.113c-1.384-0.475-2.777-0.919-4.17-1.364
	l-3.773-1.221c-2.273-0.74-4.548-1.481-6.843-2.175c-1.715-0.519-3.444-1.004-5.172-1.488l-3.021-0.855
	c-2.246-0.641-4.492-1.281-6.755-1.878c-1.934-0.506-3.88-0.982-5.827-1.454l-2.806-0.685c-2.161-0.528-4.319-1.057-6.492-1.545
	c-2.421-0.543-4.855-1.04-7.291-1.54l-1.639-0.336c-2.107-0.432-4.212-0.863-6.327-1.26c-2.755-0.511-5.52-0.977-8.358-1.449
	c-2.344-0.39-4.685-0.777-7.038-1.128c-2.867-0.426-5.746-0.814-8.631-1.184c-2.29-0.292-4.578-0.577-6.877-0.836
	c-2.975-0.336-5.958-0.631-8.948-0.901c-2.217-0.198-4.436-0.385-6.66-0.551c-3.087-0.231-6.175-0.431-9.276-0.597
	c-2.131-0.112-4.268-0.205-6.404-0.285c-3.413-0.129-6.553-0.217-9.603-0.266c-2.044-0.031-4.093-0.036-6.141-0.036
	c-3.862,0-7.063,0.022-9.949,0.088c-1.527,0.031-3.057,0.088-4.587,0.144l-1.228,0.044c-3.257,0.119-6.76,0.256-10.324,0.47
	c-1.291,0.078-2.587,0.176-3.881,0.273l-1.571,0.117c-3.23,0.233-6.992,0.516-10.745,0.884c-1.079,0.105-2.158,0.229-3.237,0.353
	l-1.71,0.193c-3.82,0.421-7.554,0.84-11.279,1.349c-0.838,0.114-1.676,0.244-2.514,0.373l-1.717,0.26
	c-3.852,0.565-7.951,1.177-12.02,1.888l-0.382,0.061l-0.446,0.321l-0.027,0.551c8.241,19.391,18.197,39.23,29.593,58.962
	c30.027,51.99,66.757,98.058,109.181,136.947c-23.754,0.984-40.818,8.982-49.41,23.179c-21.42,35.406,18.193,98.723,88.304,141.147
	c39.201,23.72,79.757,35.961,111.647,35.961c25.15-0.002,44.916-7.617,54.36-23.227c10.146-16.772,7.069-40.219-8.648-66.149
	c46.112,13.011,96.611,20.26,158.752,22.801l0.502-0.224l0.131-0.536C1456.073,858.326,1391.754,764.58,1299.089,702.806z"/>
</svg>
